<?xml version="1.0" encoding="UTF-8"?>
<svg id="uuid-970bd503-34ed-415f-a478-73d6b83d368a" data-name="Ebene 2" xmlns="http://www.w3.org/2000/svg" viewBox="0 0 663.92 119.66">
  <defs>
    <style>
      .uuid-4147fe1d-a66f-4287-8a94-eb36ad930a73 {
        fill: #27348b;
      }

      .uuid-4147fe1d-a66f-4287-8a94-eb36ad930a73, .uuid-eabf7edc-6cea-4d6f-b92b-c69e480c6a0b, .uuid-937ad2b9-ef2f-44c6-9ed1-14c5ea5dcfb9, .uuid-bf12d68c-0f4e-42c6-943e-251eb2569aa3, .uuid-bae765a3-e6fa-4d65-96de-ad94950b9c72, .uuid-a6332cd4-3e7a-470e-8324-7f8c63d6a0ae, .uuid-6a447f0e-3816-4ea1-a280-7aebda32a8e8 {
        stroke-width: 0px;
      }

      .uuid-eabf7edc-6cea-4d6f-b92b-c69e480c6a0b {
        fill: #76b82a;
      }

      .uuid-937ad2b9-ef2f-44c6-9ed1-14c5ea5dcfb9 {
        fill: #e73431;
      }

      .uuid-bf12d68c-0f4e-42c6-943e-251eb2569aa3 {
        fill: #009ba4;
      }

      .uuid-bae765a3-e6fa-4d65-96de-ad94950b9c72 {
        fill: #f7a600;
      }

      .uuid-a6332cd4-3e7a-470e-8324-7f8c63d6a0ae {
        fill: #1d1d1b;
      }

      .uuid-6a447f0e-3816-4ea1-a280-7aebda32a8e8 {
        fill: #a71680;
      }
    </style>
  </defs>
  <g id="uuid-2f8156f5-556b-4178-93df-4de0193d8b8d" data-name="logo Bild">
    <g>
      <g>
        <path class="uuid-937ad2b9-ef2f-44c6-9ed1-14c5ea5dcfb9" d="M44.72,2.04c2.38-.84,4.87-1.21,7.36-1.53,10.56-1.35,20.79,0,30.64,4.04,7.15,2.94,13.47,7.15,19,12.54.23.22.41.48.62.72.11.66-.43.96-.79,1.34-1.82,1.92-3.8,3.67-5.72,5.48-1.99,1.87-3.88,3.86-5.82,5.78-.38.38-.72.83-1.28,1-1.85-.25-3.64-.9-5.53-.93-6.35-.1-11.66,2.34-16.27,6.55-.57.53-1.09,1.11-1.66,1.64-1.05.96-1.36.92-2.09-.28-1.07-1.77-2.24-3.45-3.57-5.04-1.98-2.35-4.38-4.14-7.06-5.59-.6-.33-1.27-.55-1.67-1.16-1.17-3.19-1.8-6.53-2.7-9.8-1.17-4.24-2.22-8.51-3.35-12.76-.17-.66-.44-1.32-.11-2.01Z"/>
        <path class="uuid-4147fe1d-a66f-4287-8a94-eb36ad930a73" d="M17.34,101.84c-2.08-1.88-3.83-4.05-5.49-6.29-6.15-8.33-9.96-17.61-11.33-27.89C-.52,59.85,0,52.15,1.99,44.54c.04-.17.15-.33.22-.49.63-.36,1.25-.12,1.86.05,7.16,2.01,14.35,3.92,21.52,5.92.44.12.89.23,1.2.6.51,1.68.48,3.43.7,5.14.75,5.78,2.88,11.05,5.8,16.04,1.48,2.53,3.07,5,4.79,7.37.3.41.61.81.66,1.34,0,.67-.48,1.06-.89,1.48-4.32,4.33-8.58,8.73-13.01,12.95-2.15,2.05-4.27,4.12-6.4,6.18-.32.31-.6.7-1.12.72Z"/>
        <path class="uuid-eabf7edc-6cea-4d6f-b92b-c69e480c6a0b" d="M117.47,75.59c-.22,1.6-.79,3.09-1.36,4.58-7.21,18.9-20.56,31.24-39.87,37.19-.44.13-.87.28-1.34.29-.53-.32-.58-.91-.72-1.42-1.88-6.93-3.6-13.9-5.49-20.83-.13-.48-.27-.97-.2-1.48.71-1.53,2.22-2.26,3.42-3.26,4.99-4.15,10.1-8.14,14.6-12.85,2.22-2.32,4.25-4.78,5.95-7.5.34-.54.6-1.15,1.3-1.34,1.86.05,3.57.78,5.33,1.24,5.71,1.51,11.39,3.16,17.1,4.68.48.13,1.01.19,1.27.71Z"/>
        <path class="uuid-bf12d68c-0f4e-42c6-943e-251eb2569aa3" d="M68.7,93.75c1.76,6.72,3.51,13.44,5.27,20.17.32,1.24.63,2.48.94,3.72-2.43.85-4.97,1.22-7.5,1.54-3.59.44-7.2.6-10.83.39-11.39-.67-21.76-4.26-31.13-10.77-2.72-1.89-5.23-4.02-7.59-6.33-.19-.19-.35-.42-.52-.63,6.95-6.87,13.91-13.73,20.86-20.6.16-.16.31-.33.47-.5.49-.03.73.32.97.65,4.44,6.15,9.09,12.14,13.37,18.4.77,1.13,1.62,2.21,2.35,3.37.47.74.9.7,1.52.14,3.19-2.87,6.43-5.69,9.78-8.37.6-.48,1.08-1.28,2.03-1.19Z"/>
        <path class="uuid-6a447f0e-3816-4ea1-a280-7aebda32a8e8" d="M26.66,50.72c-6.3-1.73-12.59-3.46-18.89-5.19-1.85-.51-3.71-.99-5.56-1.48.47-2.44,1.33-4.75,2.3-7.01C12.12,19.41,25.16,7.86,43.52,2.29c.4-.12.78-.25,1.2-.25,2.01,7.71,4.02,15.41,6.03,23.12.13.48.24.97.36,1.46-1.15.43-2.12-.3-3.17-.5-5.53-1.05-10.46.07-14.54,4.07-2.97,2.91-4.55,6.59-5.42,10.59-.58,2.68-.92,5.4-.9,8.15,0,.61.17,1.3-.42,1.79Z"/>
        <path class="uuid-bae765a3-e6fa-4d65-96de-ad94950b9c72" d="M117.47,75.59c-5.31-1.45-10.63-2.89-15.94-4.34-2.64-.72-5.27-1.43-7.91-2.15-.25-.59.09-1.07.34-1.54,2.53-4.85,4.03-10.02,4.58-15.43.54-5.28.12-10.44-3.07-14.98-1.47-2.09-3.32-3.76-5.59-4.97-.41-.22-1.02-.28-1.04-.94,2.69-2.86,5.5-5.6,8.34-8.31,1.75-1.67,3.43-3.41,5.15-5.12,2.01,1.81,3.71,3.91,5.32,6.07,6.25,8.38,10.12,17.73,11.51,28.11,1.03,7.71.54,15.32-1.4,22.85-.07.26-.09.55-.3.75Z"/>
      </g>
      <g>
        <path class="uuid-a6332cd4-3e7a-470e-8324-7f8c63d6a0ae" d="M165.74,96.16V26.5c2.65-.33,5.58-.58,8.78-.75,3.2-.17,6.51-.25,9.94-.25,5.63,0,10.41.92,14.36,2.74,3.94,1.83,6.95,4.34,9.02,7.54,2.07,3.19,3.1,6.85,3.1,10.98,0,4.99-1.2,9.22-3.59,12.68-2.39,3.46-5.72,6.1-9.99,7.93-4.27,1.83-9.21,2.74-14.84,2.74-2.72,0-5.24-.1-7.57-.3v26.35h-9.21ZM183.68,62.23c5.75,0,10.22-1.33,13.39-3.99,3.17-2.66,4.75-6.22,4.75-10.68s-1.52-7.75-4.56-10.28c-3.04-2.53-7.37-3.79-13-3.79-1.75,0-3.39.03-4.95.1-1.55.07-3.01.17-4.36.3v27.84c1.03.13,2.29.25,3.78.35,1.49.1,3.14.15,4.95.15Z"/>
        <path class="uuid-a6332cd4-3e7a-470e-8324-7f8c63d6a0ae" d="M238.97,97.36c-4.21,0-8.02-1.1-11.45-3.29-3.43-2.2-6.16-5.3-8.2-9.33-2.04-4.02-3.06-8.77-3.06-14.22s1.02-9.85,3.06-13.97c2.04-4.12,4.85-7.4,8.44-9.83,3.59-2.43,7.71-3.64,12.37-3.64,2.91,0,5.54.52,7.91,1.55,2.36,1.03,4.41,2.31,6.16,3.84v-4.19h7.95v39.32c0,2.53.6,4.18,1.79,4.94,1.2.77,2.51,1.15,3.93,1.15l-1.84,6.99c-6.21,0-9.96-2.59-11.25-7.78-1.49,2.13-3.51,4.08-6.06,5.84-2.56,1.76-5.8,2.64-9.75,2.64ZM240.91,89.37c2.46,0,4.79-.61,6.98-1.85,2.2-1.23,4.04-2.78,5.53-4.64v-27.84c-1.75-1.26-3.67-2.28-5.77-3.04-2.1-.76-4.32-1.15-6.64-1.15-3.1,0-5.84.82-8.2,2.45-2.36,1.63-4.22,3.89-5.58,6.79-1.36,2.89-2.04,6.27-2.04,10.13s.68,7.04,2.04,9.93c1.36,2.89,3.23,5.16,5.63,6.79,2.39,1.63,5.08,2.45,8.05,2.45Z"/>
        <path class="uuid-a6332cd4-3e7a-470e-8324-7f8c63d6a0ae" d="M297.85,97.36c-4.21,0-8.02-1.1-11.45-3.29-3.43-2.2-6.16-5.3-8.2-9.33-2.04-4.02-3.06-8.77-3.06-14.22s1.02-9.85,3.06-13.97c2.04-4.12,4.85-7.4,8.44-9.83,3.59-2.43,7.71-3.64,12.37-3.64,2.91,0,5.54.52,7.91,1.55,2.36,1.03,4.41,2.31,6.16,3.84v-4.19h7.95v39.32c0,2.53.6,4.18,1.79,4.94,1.2.77,2.51,1.15,3.93,1.15l-1.84,6.99c-6.21,0-9.96-2.59-11.25-7.78-1.49,2.13-3.51,4.08-6.06,5.84-2.56,1.76-5.8,2.64-9.75,2.64ZM299.79,89.37c2.46,0,4.79-.61,6.98-1.85,2.2-1.23,4.04-2.78,5.53-4.64v-27.84c-1.75-1.26-3.67-2.28-5.77-3.04-2.1-.76-4.32-1.15-6.64-1.15-3.1,0-5.84.82-8.2,2.45-2.36,1.63-4.22,3.89-5.58,6.79-1.36,2.89-2.04,6.27-2.04,10.13s.68,7.04,2.04,9.93c1.36,2.89,3.23,5.16,5.63,6.79,2.39,1.63,5.08,2.45,8.05,2.45Z"/>
        <path class="uuid-a6332cd4-3e7a-470e-8324-7f8c63d6a0ae" d="M338.39,96.16v-51.9h8.44v11.28c.84-2.2,1.97-4.24,3.39-6.14,1.42-1.9,3.2-3.43,5.33-4.59,2.13-1.16,4.62-1.75,7.47-1.75.97,0,1.94.05,2.91.15.97.1,1.78.25,2.43.45l-2.62,9.28c-1.23-.53-2.68-.8-4.37-.8-2.39,0-4.67.7-6.84,2.1-2.17,1.4-3.95,3.56-5.33,6.49-1.39,2.93-2.08,6.65-2.08,11.18v24.25h-8.73Z"/>
        <path class="uuid-a6332cd4-3e7a-470e-8324-7f8c63d6a0ae" d="M393.49,97.36c-4.21,0-8.02-1.1-11.45-3.29-3.43-2.2-6.16-5.3-8.2-9.33-2.04-4.02-3.06-8.77-3.06-14.22s1.02-9.85,3.06-13.97c2.04-4.12,4.85-7.4,8.44-9.83,3.59-2.43,7.71-3.64,12.37-3.64,2.91,0,5.54.52,7.91,1.55,2.36,1.03,4.41,2.31,6.16,3.84v-4.19h7.95v39.32c0,2.53.6,4.18,1.79,4.94,1.2.77,2.51,1.15,3.93,1.15l-1.84,6.99c-6.21,0-9.96-2.59-11.25-7.78-1.49,2.13-3.51,4.08-6.06,5.84-2.56,1.76-5.8,2.64-9.75,2.64ZM395.43,89.37c2.46,0,4.79-.61,6.98-1.85,2.2-1.23,4.04-2.78,5.53-4.64v-27.84c-1.75-1.26-3.67-2.28-5.77-3.04-2.1-.76-4.32-1.15-6.64-1.15-3.1,0-5.84.82-8.2,2.45-2.36,1.63-4.22,3.89-5.58,6.79-1.36,2.89-2.04,6.27-2.04,10.13s.68,7.04,2.04,9.93c1.36,2.89,3.23,5.16,5.63,6.79,2.39,1.63,5.08,2.45,8.05,2.45Z"/>
        <path class="uuid-a6332cd4-3e7a-470e-8324-7f8c63d6a0ae" d="M451.69,97.36c-4.85,0-8.68-1.65-11.49-4.94-2.81-3.29-4.22-8-4.22-14.12v-24.35h-8.73v-7.79h8.92l1.84-16.37h6.69v16.37h13.97v7.79h-13.97v25.05c0,3.86.79,6.55,2.38,8.08,1.58,1.53,3.48,2.3,5.67,2.3,1.62,0,3.15-.27,4.61-.8,1.46-.53,2.8-1.16,4.03-1.9l2.42,7.19c-1.29.8-3.04,1.58-5.24,2.34-2.2.76-4.5,1.15-6.89,1.15Z"/>
        <path class="uuid-a6332cd4-3e7a-470e-8324-7f8c63d6a0ae" d="M490.78,97.36c-7.24,0-12.98-2.38-17.22-7.14-4.24-4.76-6.35-11.43-6.35-20.01,0-5.19.95-9.83,2.86-13.92,1.91-4.09,4.57-7.32,8-9.68,3.43-2.36,7.4-3.54,11.93-3.54,4.85,0,8.88,1.08,12.08,3.24,3.2,2.16,5.61,5.08,7.23,8.73,1.62,3.66,2.42,7.68,2.42,12.08,0,2.33-.1,4.59-.29,6.79h-35.31c.58,4.86,2.23,8.65,4.95,11.38,2.72,2.73,6.3,4.09,10.77,4.09,2.91,0,5.53-.32,7.86-.95,2.33-.63,4.56-1.45,6.69-2.45l2.04,7.68c-2.33,1.07-4.95,1.95-7.86,2.64-2.91.7-6.18,1.05-9.8,1.05ZM476.03,66.62h27.64c0-5.06-1.23-8.95-3.69-11.68-2.46-2.73-5.85-4.09-10.19-4.09-3.75,0-6.86,1.35-9.31,4.04-2.46,2.69-3.95,6.6-4.46,11.73Z"/>
        <path class="uuid-a6332cd4-3e7a-470e-8324-7f8c63d6a0ae" d="M538.69,97.36c-2.98,0-5.66-.58-8.05-1.75-2.39-1.16-4.29-3.04-5.67-5.64-1.39-2.59-2.08-5.95-2.08-10.08V22.31h8.73v56.69c0,3.59.73,6.25,2.18,7.98,1.46,1.73,3.48,2.59,6.06,2.59,1.23,0,2.44-.15,3.64-.45,1.2-.3,2.21-.65,3.06-1.05l2.13,7.29c-1.16.53-2.6,1-4.32,1.4-1.71.4-3.61.6-5.67.6Z"/>
        <path class="uuid-a6332cd4-3e7a-470e-8324-7f8c63d6a0ae" d="M561.3,35.38c-1.68,0-3.12-.63-4.32-1.9-1.2-1.26-1.79-2.73-1.79-4.39,0-1.93.55-3.46,1.65-4.59,1.1-1.13,2.59-1.7,4.46-1.7,1.68,0,3.12.62,4.32,1.85,1.2,1.23,1.79,2.71,1.79,4.44,0,1.86-.55,3.38-1.65,4.54-1.1,1.17-2.59,1.75-4.46,1.75ZM556.93,96.16v-51.9h8.73v51.9h-8.73Z"/>
        <path class="uuid-a6332cd4-3e7a-470e-8324-7f8c63d6a0ae" d="M601.36,97.36c-7.24,0-12.98-2.38-17.22-7.14-4.24-4.76-6.35-11.43-6.35-20.01,0-5.19.95-9.83,2.86-13.92,1.91-4.09,4.57-7.32,8-9.68,3.43-2.36,7.4-3.54,11.93-3.54,4.85,0,8.88,1.08,12.08,3.24,3.2,2.16,5.61,5.08,7.23,8.73,1.62,3.66,2.42,7.68,2.42,12.08,0,2.33-.1,4.59-.29,6.79h-35.31c.58,4.86,2.23,8.65,4.95,11.38,2.72,2.73,6.3,4.09,10.77,4.09,2.91,0,5.53-.32,7.86-.95,2.33-.63,4.56-1.45,6.69-2.45l2.04,7.68c-2.33,1.07-4.95,1.95-7.86,2.64-2.91.7-6.18,1.05-9.8,1.05ZM586.61,66.62h27.64c0-5.06-1.23-8.95-3.69-11.68-2.46-2.73-5.85-4.09-10.19-4.09-3.75,0-6.86,1.35-9.31,4.04-2.46,2.69-3.95,6.6-4.46,11.73Z"/>
        <path class="uuid-a6332cd4-3e7a-470e-8324-7f8c63d6a0ae" d="M633.95,96.16v-51.9h8.44v11.28c.84-2.2,1.97-4.24,3.39-6.14,1.42-1.9,3.2-3.43,5.33-4.59,2.13-1.16,4.62-1.75,7.47-1.75.97,0,1.94.05,2.91.15.97.1,1.78.25,2.43.45l-2.62,9.28c-1.23-.53-2.68-.8-4.37-.8-2.39,0-4.67.7-6.84,2.1-2.17,1.4-3.95,3.56-5.33,6.49-1.39,2.93-2.08,6.65-2.08,11.18v24.25h-8.73Z"/>
      </g>
    </g>
  </g>
</svg>