<svg width="165" height="62" viewBox="0 0 165 62" fill="none" xmlns="http://www.w3.org/2000/svg">
<g clip-path="url(#clip0_5222_4776)">
<path d="M45.7126 33.6415C45.7756 34.3486 45.7789 35.0557 45.7391 35.7595C45.7258 35.993 45.7391 36.3399 45.424 36.3733C45.132 36.4066 45.0856 36.0764 44.9994 35.8663C44.7705 35.2959 44.6643 34.6922 44.4984 33.9884C44.452 34.5321 44.525 34.979 44.4022 35.4093C44.3558 35.5761 44.3293 35.7695 44.1136 35.7929C43.9046 35.8162 43.8118 35.6461 43.7321 35.4927C43.4767 35.0057 43.3838 34.462 43.2445 33.915C43.2246 33.9417 43.2146 33.9517 43.2113 33.965C43.1616 34.2185 43.2047 34.5487 42.863 34.6021C42.5047 34.6588 42.3654 34.352 42.2427 34.0851C42.0237 33.6048 41.9507 33.0845 41.9142 32.5708C41.7948 30.823 41.838 29.0819 42.1863 27.3574C42.2659 26.9705 42.4019 26.6103 42.6474 26.3068C43.1217 25.7197 43.1052 25.096 42.8829 24.4222C42.0138 21.8072 40.2987 20.0027 37.8273 18.8153C36.3412 18.1015 34.8052 18.0448 33.2461 18.1348C30.1112 18.3149 27.1323 19.1021 24.3557 20.6131C23.3738 21.1468 22.4482 21.7672 21.5758 22.4676C21.4862 22.541 21.4033 22.6244 21.317 22.7078C21.4232 22.8445 21.5227 22.7578 21.6123 22.7311C23.5264 22.1974 25.4139 21.577 27.2816 20.8933C29.262 20.1695 31.2922 19.956 33.3788 20.3696C34.2347 20.5397 34.8882 21 35.4123 21.6638C36.4241 22.9446 37.0942 24.3989 37.5984 25.9432C37.7178 26.3068 37.5387 26.4602 37.2567 26.5836C35.8933 27.184 34.4636 27.4842 32.9807 27.5576C31.6836 27.6243 30.5292 27.234 29.461 26.5136C28.509 25.8732 27.6664 25.1027 26.8006 24.3522C26.4887 24.082 26.1636 23.8285 25.8518 23.5617C25.3443 23.1214 24.7604 23.058 24.1334 23.2081C22.5378 23.585 21.1644 24.4522 19.7181 25.1794C18.0163 26.0366 17.1273 27.5042 16.3809 29.1386C15.2165 31.6902 14.6028 34.372 14.4999 37.1738C14.3772 40.4926 14.9013 43.7047 16.152 46.7866C16.1851 46.8667 16.1951 46.9734 16.3377 47.0135C16.7856 46.2229 17.0244 45.3591 17.2069 44.4718C17.4258 43.4078 17.3827 42.3238 17.5088 41.2531C17.7642 39.095 18.6964 37.2705 20.1891 35.7162C20.7995 35.0791 21.4431 34.472 22.1895 34.0151C23.3804 33.2846 24.2927 32.2773 25.1519 31.2033C25.3277 30.9865 25.5134 30.7797 25.7058 30.5729C25.7921 30.4795 25.885 30.3494 26.0376 30.4061C26.1802 30.4594 26.2101 30.6129 26.2233 30.7396C26.2731 31.2033 26.2764 31.6736 26.2233 32.1372C25.9845 34.2085 25.4736 36.2198 24.7704 38.1778C24.0605 40.1524 22.7236 41.6433 21.0948 42.8975C20.4081 43.4245 19.6849 43.8981 18.9252 44.305C18.5205 44.5219 18.2717 44.8321 18.1258 45.2523C17.6514 46.6032 17.4888 47.9974 17.5585 49.4217C17.5651 49.5618 17.6215 49.6785 17.6912 49.7919C20.2986 53.9713 23.9112 56.9098 28.5023 58.6343C28.5388 58.6476 28.5786 58.6443 28.6649 58.6576C28.4294 58.2674 28.0844 58.0272 27.7958 57.7337C27.2617 57.1934 26.7276 56.6563 26.1736 56.1427C25.1983 55.2388 24.8898 54.0613 24.7704 52.8005C24.6742 51.8032 24.6509 50.8059 24.767 49.8053C24.7704 49.7652 24.767 49.7252 24.7737 49.6852C24.8201 49.5117 24.7571 49.2682 24.9594 49.1982C25.1353 49.1348 25.2713 49.3183 25.394 49.4317C26.9863 50.916 28.1208 52.6838 28.6384 54.8252C28.8473 55.6924 29.0563 56.5596 29.1227 57.4535C29.1559 57.9038 29.3914 58.184 29.7297 58.4675C30.9306 59.4682 32.3604 59.7117 33.8399 59.8351C37.1871 60.1086 40.4215 59.6383 43.543 58.4008C44.5814 57.9905 45.5799 57.4936 46.5353 56.9198C46.6912 56.8265 46.8305 56.6997 47.0561 56.673C47.0329 56.8031 46.94 56.8531 46.867 56.9098C43.8814 59.2947 40.5077 60.8424 36.7492 61.4828C30.7084 62.5101 25.1386 61.2793 20.0399 57.8671C19.3864 57.4302 18.64 57.4869 17.9931 57.8471C16.2581 58.8077 14.4834 58.6943 12.6721 58.184C12.3205 58.0839 12.0186 57.8838 11.7532 57.6403C10.5722 56.5496 9.587 55.3021 8.81407 53.8846C8.6482 53.581 8.51551 53.2575 8.4558 52.9139C8.38282 52.4837 8.57854 52.2168 9.00647 52.2402C11.3186 52.3569 13.3953 53.0774 15.0539 54.7685C15.8302 55.559 16.7358 56.0993 17.8007 56.3795C17.8737 56.3995 17.9566 56.4262 18.0594 56.3395C17.8438 56.1393 17.6315 55.9492 17.4258 55.7524C13.5877 52.1268 11.2523 47.6939 10.4661 42.4639C10.2538 41.0529 10.0183 39.6587 9.65335 38.2778C9.21878 36.6401 8.31315 35.4527 6.75733 34.7422C5.66925 34.2452 4.65415 33.6081 3.75516 32.801C2.21261 31.4134 1.32689 29.6256 0.646837 27.711C0.275297 26.667 -0.0464825 25.6096 -4.0072e-05 24.4789C0.00327724 24.3855 -0.0066747 24.2888 0.00991188 24.1987C0.053037 23.9519 0.0629889 23.6484 0.315105 23.5417C0.577173 23.4282 0.746356 23.6917 0.912222 23.8452C1.74487 24.6057 2.68035 25.1527 3.72199 25.6096C5.9081 26.5669 7.58334 28.1279 8.51219 30.3861C8.89037 31.3033 8.90695 32.3106 9.12258 33.2713C9.27186 33.9484 9.40455 34.6288 9.6633 35.2725C9.75287 35.4927 9.85902 35.7095 9.97845 35.9163C10.0547 36.0464 10.1244 36.2565 10.3069 36.2165C10.476 36.1798 10.4163 35.9697 10.4362 35.8329C11.1727 31.0098 13.2095 26.8304 16.5633 23.3015C17.2898 22.5377 18.0627 21.8305 18.8987 21.1901C19.1807 20.9733 19.3764 20.6898 19.5688 20.403C21.317 17.7779 22.7037 14.9661 23.8448 12.0276C24.0074 11.6073 24.024 11.2571 23.7586 10.8401C23.0984 9.80279 23.1416 8.62202 23.2908 7.46461C23.4832 5.97031 23.6027 4.47268 23.7254 2.97171C23.7818 2.26792 23.8481 1.56414 23.9808 0.870357C24.0074 0.726931 24.0571 0.58684 24.1102 0.450085C24.1666 0.299989 24.233 0.139885 24.4254 0.129879C24.6343 0.119872 24.7239 0.283311 24.8002 0.440079C24.9329 0.716924 24.9959 1.02045 25.049 1.32065C25.2016 2.20122 25.2514 3.09179 25.3044 4.05241C25.4803 3.30193 25.6329 2.61148 25.802 1.92437C25.9281 1.42071 26.0741 0.920389 26.3195 0.460092C26.439 0.229943 26.5617 -0.0735858 26.8868 -0.00354057C27.202 0.0631691 27.2351 0.383376 27.2517 0.643544C27.2915 1.26061 27.1389 1.861 26.9996 2.45471C26.9498 2.66151 26.8934 2.86498 26.8669 3.08178C27.1456 2.55144 27.4209 2.01443 27.7095 1.48742C27.882 1.17055 28.081 0.870357 28.3531 0.626866C28.4725 0.520131 28.6019 0.41006 28.781 0.486776C28.9469 0.560156 28.9999 0.716924 29.0198 0.877028C29.0663 1.20057 28.9767 1.51411 28.9004 1.82097C28.7445 2.45471 28.4957 3.05843 28.3099 3.69885C28.4459 3.50539 28.582 3.31193 28.718 3.11847C29.0431 2.64817 29.3682 2.17453 29.8094 1.80096C29.9719 1.6642 30.1577 1.5041 30.3766 1.6542C30.5856 1.79429 30.5425 2.0211 30.4894 2.23791C30.3136 2.93502 29.9288 3.52874 29.5705 4.1358C29.4279 4.37595 29.272 4.6061 29.1691 4.88628C29.6435 4.39596 30.1146 3.90231 30.5989 3.422C30.8543 3.16851 31.1363 2.94503 31.4581 2.78159C31.5841 2.71822 31.7268 2.63483 31.8661 2.75491C32.0087 2.87832 31.9922 3.03842 31.9457 3.19853C31.8329 3.60212 31.6273 3.96235 31.3984 4.30257C31.0401 4.82958 30.6652 5.34324 30.2672 5.90027C30.8245 5.42997 31.342 4.97634 31.9159 4.59943C32.1249 4.45934 32.3405 4.32258 32.5826 4.2492C32.931 4.1458 33.1035 4.30257 33.0139 4.65947C32.9376 4.963 32.7518 5.21649 32.5661 5.45331C30.841 7.65807 28.8606 9.59265 26.5683 11.2004C26.1968 11.4605 25.802 11.6807 25.3509 11.7741C25.2348 11.7974 25.1618 11.8608 25.1087 11.9575C24.2927 13.4985 23.4534 15.0262 23.042 16.7439C22.9259 17.2242 23.0354 17.6645 23.1581 18.1182C23.2378 18.4083 23.3671 18.4517 23.6458 18.3249C24.8666 17.7646 26.1338 17.341 27.4342 17.0141C31.9689 15.8734 36.4175 16.2069 40.7996 17.7779C42.4616 18.375 44.0771 19.0788 45.6694 19.8359C46.5585 20.2595 47.4741 20.5831 48.4394 20.8032C50.1047 21.1768 51.5809 21.9306 52.6856 23.2915C52.8183 23.4549 52.9576 23.6217 53.0571 23.8085C53.913 25.4062 54.6362 27.0639 55.147 28.8084C55.3129 29.3754 55.1702 29.5088 54.6063 29.322C51.3586 28.2447 48.7048 26.4435 47.2319 23.2014C46.8969 22.461 46.522 21.7405 46.167 21.01C45.905 20.4663 45.5301 20.1128 44.9031 19.976C43.8084 19.7392 42.7303 19.4157 41.619 19.1221C41.6256 19.2155 41.6157 19.2656 41.6356 19.2856C42.8365 20.5998 43.5099 22.2108 44.1501 23.8352C44.1932 23.9452 44.2463 24.0553 44.2762 24.1721C44.5449 25.2127 45.1685 25.9532 46.0908 26.4869C46.8338 26.9172 47.285 27.5776 47.5305 28.4181C48.0314 30.1359 48.3764 31.8804 48.519 33.6648C48.5422 33.9584 48.5091 34.2519 48.456 34.5421C48.4195 34.7422 48.3731 34.9523 48.1475 35.0124C47.8987 35.0758 47.7527 34.899 47.6267 34.7255C47.3513 34.342 47.2186 33.8917 47.076 33.448C47.0461 33.3613 47.0229 33.2713 46.9665 33.1845C47.0096 33.7783 47.0594 34.372 47.0959 34.9657C47.1158 35.2726 47.1058 35.5794 47.0395 35.8829C47.003 36.0531 46.9931 36.2632 46.7907 36.2932C46.5651 36.3299 46.4822 36.1198 46.4026 35.953C46.1339 35.3826 46.0078 34.7689 45.8619 34.1585C45.8187 33.9784 45.8121 33.7883 45.7026 33.6315V33.6248L45.7126 33.6415Z" fill="#314E36"/>
<path d="M44.9596 49.9422C43.9976 49.9289 43.1152 49.6754 42.2659 49.2951C41.0982 48.7714 40.0997 47.9976 39.2571 47.0403C38.4079 46.0764 38.0828 44.8789 37.9037 43.6381C37.7013 42.2239 37.8008 40.8463 38.2586 39.4654C38.796 37.8544 38.5605 36.2267 38.0231 34.6423C37.97 34.4822 37.907 34.3221 37.8838 34.1387C38.1989 34.3121 38.4212 34.5656 38.5771 34.8858C38.9287 35.6096 39.1244 36.3835 39.3102 37.1606C39.3799 37.4508 39.5159 37.6309 39.7978 37.7744C40.9324 38.3581 41.7783 39.1886 42.183 40.4661C42.7403 42.2239 43.0521 44.0284 43.364 45.8396C43.5298 46.7935 43.6227 47.7675 44.0838 48.648C44.326 49.1083 44.6478 49.5086 44.9563 49.9389L44.9596 49.9422Z" fill="#314E36"/>
<path d="M91.757 61.9733C91.2196 62.0134 90.6954 61.9433 90.1812 61.7999C88.8908 61.4396 88.0714 60.4056 87.9918 59.0648C87.9818 58.8747 88.025 58.7512 88.2273 58.7212C88.2539 58.7179 88.2771 58.7079 88.3036 58.7012C88.6121 58.6312 88.9638 58.441 89.2192 58.5244C89.5211 58.6245 89.3618 59.0648 89.4381 59.3516C89.6737 60.2355 90.1746 60.7292 91.0636 60.8893C91.6608 60.9994 92.2512 60.9994 92.8318 60.8092C93.9597 60.4423 94.2814 59.1515 93.4654 58.2776C93.0872 57.8707 92.5996 57.6239 92.1152 57.3737C91.4086 57.0101 90.6888 56.6666 89.9921 56.283C89.4282 55.9728 88.9306 55.5725 88.6221 54.9855C87.8624 53.5346 88.5259 51.8601 90.0751 51.3598C91.1001 51.0263 92.1418 51.0463 93.1635 51.3832C94.2715 51.7501 94.9582 52.7107 94.998 53.8881C95.0013 53.9982 95.0112 54.1283 94.8951 54.165C94.5535 54.265 94.2051 54.3517 93.8568 54.4285C93.7308 54.4551 93.7208 54.3384 93.7075 54.2417C93.6843 54.0582 93.6644 53.8714 93.6279 53.688C93.4687 52.9275 93.0408 52.4172 92.2612 52.2604C91.737 52.1537 91.2063 52.147 90.6855 52.2971C89.6073 52.6039 89.2856 53.8681 90.0751 54.6786C90.4831 55.0956 91.0006 55.339 91.5115 55.5959C92.3541 56.0161 93.2365 56.3597 94.0061 56.9101C94.7326 57.4304 95.2136 58.1075 95.2634 59.0281C95.343 60.4157 94.5899 61.443 93.2464 61.8099C92.7555 61.9433 92.2612 62.01 91.7536 61.97L91.757 61.9733Z" fill="#314E36"/>
<path d="M101.115 44.5821C100.876 44.7622 100.84 44.9824 100.74 45.1625C100.034 46.43 98.9323 46.9236 97.5258 46.5934C96.6036 46.3766 96.0761 45.7362 96.0496 44.5821C96.0065 42.7042 96.0363 40.823 96.033 38.9418C96.033 38.7017 96.1325 38.6216 96.3647 38.6049C97.4097 38.5215 97.4097 38.5149 97.4097 39.5455C97.4097 41.0799 97.413 42.6142 97.4097 44.1452C97.4097 44.7322 97.4727 45.2992 98.0864 45.5561C98.7532 45.8329 99.3934 45.7228 99.9342 45.2292C100.531 44.6855 100.773 43.9617 100.793 43.1845C100.83 41.8237 100.82 40.4628 100.807 39.1052C100.803 38.725 100.913 38.5882 101.301 38.5949C102.366 38.6183 102.183 38.5415 102.187 39.4588C102.197 41.6469 102.183 43.8316 102.197 46.0197C102.197 46.41 102.104 46.5667 101.686 46.54C100.7 46.4833 100.704 46.7735 100.929 45.5561C100.986 45.2559 101.125 44.9624 101.118 44.5821H101.115Z" fill="#314E36"/>
<path d="M105.806 40.5162C106.015 40.4328 106.031 40.256 106.098 40.1259C106.778 38.8017 107.816 38.2647 109.193 38.5315C110.224 38.7317 110.805 39.2954 110.838 40.3827C110.898 42.3407 110.865 44.3019 110.871 46.2599C110.871 46.4366 110.808 46.54 110.619 46.53C110.606 46.53 110.593 46.53 110.579 46.53C109.319 46.5 109.538 46.7502 109.521 45.5461C109.505 44.1185 109.518 42.6942 109.518 41.2666C109.518 41.1732 109.518 41.0798 109.518 40.9865C109.505 40.3894 109.415 39.809 108.772 39.5755C108.098 39.3321 107.458 39.4555 106.934 39.9691C106.337 40.5528 106.128 41.31 106.108 42.1138C106.078 43.4214 106.078 44.7255 106.098 46.033C106.104 46.4433 105.975 46.5634 105.574 46.5434C104.615 46.4967 104.718 46.7101 104.714 45.6628C104.708 43.4747 104.721 41.29 104.704 39.1019C104.704 38.7183 104.817 38.5849 105.202 38.5982C106.244 38.6316 106.184 38.4648 105.998 39.5755C105.948 39.8791 105.799 40.1659 105.812 40.5195L105.806 40.5162Z" fill="#314E36"/>
<path d="M160.027 40.5028C160.153 40.2727 160.273 40.0392 160.409 39.8157C161.135 38.5949 162.558 38.1279 163.862 38.685C164.662 39.0252 164.973 39.7023 164.983 40.5095C165.01 42.3907 164.99 44.2686 164.997 46.1498C164.997 46.44 164.9 46.54 164.605 46.5434C163.653 46.5434 163.653 46.5567 163.653 45.6028C163.653 44.0284 163.653 42.4541 163.64 40.8831C163.637 40.306 163.487 39.7723 162.874 39.5689C162.243 39.3587 161.64 39.4488 161.129 39.9124C160.495 40.4861 160.263 41.25 160.24 42.0672C160.206 43.388 160.21 44.7089 160.226 46.0264C160.23 46.4233 160.124 46.5601 159.712 46.5467C158.843 46.5167 158.843 46.54 158.843 45.6728C158.843 43.4847 158.85 41.3 158.836 39.1119C158.836 38.735 158.939 38.5882 159.327 38.6016C160.382 38.6349 160.316 38.4615 160.117 39.6122C160.067 39.9024 159.911 40.1759 160.031 40.5095L160.027 40.5028Z" fill="#314E36"/>
<path d="M63.1518 59.9253C62.976 60.2322 62.8167 60.5524 62.6177 60.8459C61.8879 61.9299 60.352 62.3168 59.1843 61.7265C58.5706 61.4163 58.2388 60.8893 58.209 60.2255C58.1161 58.2275 58.1791 56.2262 58.1725 54.225C58.1725 54.0148 58.2422 53.9114 58.4744 53.9181C59.7681 53.9481 59.5061 53.7246 59.5193 54.9121C59.5359 56.4464 59.526 57.9807 59.5193 59.515C59.5193 60.0487 59.6023 60.549 60.1164 60.8159C60.6572 61.0961 61.2277 61.066 61.7486 60.7492C62.5248 60.2789 62.8134 59.505 62.8897 58.6578C63.0091 57.2869 62.9196 55.9127 62.9395 54.5385C62.9494 53.9214 62.9428 53.9148 63.5698 53.9214C64.3825 53.9314 64.2929 53.8047 64.2929 54.6386C64.2963 56.88 64.2863 59.1215 64.3029 61.3596C64.3029 61.7531 64.1768 61.8666 63.8053 61.8565C62.7305 61.8265 62.8632 61.9733 63.029 60.9126C63.0788 60.5891 63.2414 60.2889 63.1452 59.9253H63.1518Z" fill="#314E36"/>
<path d="M68.0182 55.816C68.1376 55.5992 68.2504 55.3758 68.3765 55.1623C69.0764 53.9715 70.2972 53.4979 71.6175 53.9015C72.4502 54.155 72.9577 54.7854 72.971 55.7126C72.9975 57.6439 72.9776 59.5785 72.9842 61.5097C72.9842 61.7499 72.8947 61.8299 72.6625 61.8499C71.654 61.93 71.6573 61.9366 71.6573 60.9327C71.6573 59.5051 71.6573 58.0808 71.6573 56.6532C71.6573 56.5599 71.6573 56.4665 71.6573 56.3731C71.6474 55.5058 71.3919 55.0389 70.828 54.8454C70.1413 54.6119 69.3319 54.8654 68.8708 55.4658C68.4064 56.0695 68.2272 56.78 68.2173 57.5238C68.1974 58.8046 68.1974 60.0821 68.2173 61.3629C68.2206 61.7165 68.131 61.8633 67.7595 61.8566C66.6913 61.8299 66.8638 61.9567 66.8572 60.9794C66.8472 58.808 66.8538 56.6332 66.8572 54.4618C66.8572 53.9215 66.8638 53.9215 67.4045 53.9215C67.4974 53.9215 67.5903 53.9215 67.6832 53.9215C68.2803 53.9215 68.3068 53.9515 68.1841 54.5619C68.1012 54.9688 68.0016 55.3724 67.9121 55.7793C67.9519 55.7927 67.9884 55.806 68.0282 55.8194L68.0182 55.816Z" fill="#314E36"/>
<path d="M136.707 55.8393C136.839 55.5992 136.952 55.3757 137.075 55.1622C137.775 53.9715 138.996 53.4945 140.316 53.8981C141.162 54.1549 141.666 54.8087 141.673 55.7493C141.689 57.6538 141.673 59.5617 141.683 61.4663C141.683 61.7398 141.593 61.8365 141.321 61.8499C140.352 61.8999 140.352 61.9099 140.352 60.9326C140.352 59.505 140.352 58.0808 140.352 56.6532C140.352 56.5598 140.352 56.4664 140.352 56.373C140.346 55.5091 140.09 55.0388 139.523 54.8454C138.84 54.6119 138.027 54.8654 137.566 55.4658C137.101 56.0695 136.926 56.7799 136.912 57.5237C136.889 58.8046 136.892 60.0821 136.912 61.3629C136.916 61.7165 136.829 61.8665 136.455 61.8565C135.386 61.8299 135.559 61.9566 135.552 60.9793C135.542 58.8079 135.549 56.6332 135.552 54.4618C135.552 53.9214 135.559 53.9214 136.1 53.9214C136.192 53.9214 136.285 53.9214 136.378 53.9214C136.979 53.9214 137.002 53.9448 136.882 54.5618C136.806 54.9621 136.71 55.3624 136.627 55.7626C136.627 55.7693 136.644 55.7793 136.71 55.8427L136.707 55.8393Z" fill="#314E36"/>
<path d="M90.3671 42.4407C90.3671 41.6402 90.3538 40.8397 90.3737 40.0392C90.3803 39.699 90.2476 39.5756 89.9292 39.5989C89.8363 39.6056 89.7434 39.5889 89.6505 39.5989C89.2591 39.6489 89.1032 39.4988 89.1297 39.0886C89.1629 38.6083 89.1397 38.6049 89.7069 38.5983C90.147 38.5916 90.3671 38.3726 90.3671 37.9412C90.3671 37.621 90.3803 37.3008 90.3637 36.9805C90.3505 36.7204 90.45 36.5903 90.6988 36.5303C90.9045 36.4802 91.1068 36.4068 91.2992 36.3235C91.6011 36.1934 91.7338 36.2634 91.7239 36.6103C91.7106 37.104 91.7371 37.5976 91.7205 38.0913C91.7073 38.4748 91.8599 38.6149 92.2347 38.6016C92.7257 38.5816 93.2166 38.6183 93.7076 38.5949C94.0858 38.5782 94.1753 38.7383 94.1654 39.0919C94.1588 39.4154 94.1256 39.6256 93.7242 39.6056C93.2067 39.5789 92.6892 39.6122 92.1717 39.5989C91.8499 39.5922 91.7205 39.7256 91.7239 40.0492C91.7305 41.5568 91.7172 43.0645 91.7338 44.5721C91.7438 45.3326 92.0722 45.6161 92.8385 45.5994C93.1602 45.5928 93.4721 45.5227 93.7706 45.4126C94.0228 45.3193 94.1322 45.3259 94.1057 45.6495C94.046 46.3633 93.9995 46.44 93.2963 46.5901C92.9579 46.6635 92.6162 46.6968 92.2712 46.6901C91.067 46.6701 90.3969 46.0164 90.3737 44.8023C90.3604 44.0151 90.3737 43.2279 90.3704 42.4407H90.3671Z" fill="#314E36"/>
<path d="M125.71 41.2666C125.71 39.6523 125.716 38.0412 125.703 36.4269C125.703 36.1 125.789 35.9799 126.124 35.9932C127.242 36.0299 127.096 35.8331 127.1 36.9639C127.106 39.6156 127.1 42.2706 127.1 44.9223C127.1 45.4493 127.1 45.4527 127.637 45.4527C128.738 45.4527 129.84 45.4727 130.938 45.446C131.409 45.436 131.392 45.6995 131.402 46.0297C131.415 46.3899 131.336 46.55 130.924 46.5434C129.332 46.52 127.743 46.52 126.151 46.5434C125.766 46.55 125.693 46.4133 125.696 46.0664C125.713 44.4654 125.703 42.8677 125.703 41.2666H125.71Z" fill="#314E36"/>
<path d="M98.1694 57.7539C98.1694 56.9401 98.1594 56.1262 98.1727 55.3157C98.1793 55.0021 98.0566 54.8754 97.7547 54.8921C97.6353 54.8987 97.5159 54.8787 97.3964 54.8921C97.0216 54.9388 96.9353 54.7553 96.9287 54.4084C96.9187 54.0282 97.0315 53.8981 97.4197 53.9148C98.2258 53.9448 98.1661 54.0015 98.1661 53.1676C98.1661 53.0742 98.1661 52.9808 98.1661 52.8874C98.1661 51.8368 98.1661 51.8434 99.211 51.5966C99.43 51.5432 99.4963 51.5966 99.493 51.8168C99.4864 52.3771 99.5062 52.9375 99.4863 53.4945C99.4731 53.8347 99.6058 53.9381 99.9276 53.9281C100.498 53.9081 101.069 53.9348 101.636 53.9181C101.928 53.9114 101.981 54.0682 101.948 54.2917C101.915 54.5152 102.114 54.8754 101.649 54.8821C101.079 54.8887 100.508 54.9021 99.9375 54.8887C99.5958 54.8821 99.4764 55.0055 99.4797 55.359C99.4963 56.8133 99.4797 58.2642 99.4897 59.7185C99.493 60.4523 99.7451 60.8259 100.263 60.8826C100.538 60.9126 100.82 60.9226 101.092 60.8459C101.271 60.7959 101.454 60.7592 101.626 60.6925C101.858 60.6024 101.895 60.6925 101.888 60.9093C101.868 61.6431 101.799 61.7298 101.089 61.8966C100.657 61.9967 100.219 62.01 99.7849 61.9766C98.7831 61.8999 98.1893 61.2295 98.1627 60.1588C98.1627 60.1321 98.1627 60.1054 98.1627 60.0788C98.1627 59.3049 98.1627 58.5311 98.1627 57.7606L98.1694 57.7539Z" fill="#314E36"/>
<path d="M113.273 55.8293C113.512 55.7393 113.525 55.5625 113.582 55.4291C114.019 54.3851 114.789 53.8147 115.924 53.7313C116.152 53.7146 116.249 53.7647 116.308 54.0015C116.537 54.9154 116.547 54.9154 115.612 55.0021C114.554 55.1055 113.983 55.5959 113.728 56.6365C113.635 57.0134 113.585 57.3937 113.588 57.7839C113.588 59.0114 113.578 60.2355 113.595 61.463C113.598 61.7665 113.495 61.8599 113.21 61.8566C112.026 61.8399 112.238 61.9833 112.231 60.9026C112.218 58.7579 112.225 56.6132 112.231 54.4651C112.231 53.9248 112.238 53.9248 112.779 53.9248C113.694 53.9248 113.698 53.9248 113.512 54.8354C113.449 55.1522 113.366 55.4658 113.28 55.8327L113.273 55.8293Z" fill="#314E36"/>
<path d="M77.0414 40.5328C77.1542 40.296 77.267 40.0625 77.3831 39.829C77.8442 38.8984 78.6437 38.5048 79.6289 38.4181C79.7483 38.4081 79.8777 38.3914 79.9142 38.5549C79.9772 38.8551 80.0469 39.1519 80.0867 39.4521C80.1132 39.6489 79.9341 39.6289 79.808 39.6422C79.4929 39.6789 79.1711 39.6856 78.8626 39.7556C77.9039 39.9725 77.3499 40.7496 77.2769 41.9304C77.194 43.2879 77.2537 44.6488 77.2338 46.0063C77.2294 46.3555 77.0547 46.53 76.7097 46.53C76.1546 46.53 75.877 46.2465 75.877 45.6795C75.877 43.4947 75.887 41.31 75.8671 39.1252C75.8671 38.735 75.9566 38.5882 76.368 38.5916C77.3731 38.5982 77.3698 38.5816 77.1509 39.5755C77.0845 39.8824 76.9419 40.1759 77.0381 40.5295L77.0414 40.5328Z" fill="#314E36"/>
<path d="M45.7127 33.6417C45.6994 33.5783 45.6861 33.5183 45.6729 33.4549C45.6861 33.4549 45.6994 33.4549 45.7093 33.4516C45.7093 33.5183 45.7093 33.5817 45.7093 33.6484L45.7127 33.6417Z" fill="black"/>
<path d="M63.4437 40.9698C63.4437 40.9698 63.4271 40.9498 63.4072 40.9164C63.5001 40.793 63.6262 40.7897 63.7356 40.7463C64.1304 40.5929 64.4488 40.346 64.6545 39.9624C65.6763 38.0846 64.4887 36.0132 62.3722 35.9966C61.1912 35.9865 60.0136 36.0066 58.8326 35.9866C58.4876 35.9799 58.3682 36.09 58.3715 36.4402C58.3815 39.6522 58.3815 42.861 58.3715 46.0731C58.3715 46.4533 58.5042 46.54 58.8592 46.5367C60.0235 46.5167 61.1912 46.5334 62.3589 46.53C64.0275 46.5267 64.9796 45.7062 65.2317 44.0584C65.4739 42.4741 64.9564 41.5802 63.447 40.9698H63.4437ZM59.7681 38.725C59.7681 38.2847 59.7747 37.8478 59.7681 37.4075C59.7648 37.1673 59.8676 37.0672 60.0998 37.0706C60.8263 37.0773 61.5561 37.0572 62.2826 37.0906C63.029 37.1239 63.4968 37.6209 63.5432 38.3714C63.5432 38.3848 63.5432 38.3981 63.5432 38.4114C63.6228 39.9591 63.1684 40.4394 61.6358 40.4428C61.1581 40.4428 60.6837 40.4328 60.206 40.4428C59.8909 40.4494 59.7449 40.346 59.7615 40.0025C59.7847 39.5789 59.7681 39.1519 59.7681 38.725ZM63.6859 44.3953C63.5067 45.0291 63.0655 45.3726 62.422 45.4427C61.6557 45.526 60.8861 45.4727 60.1164 45.4827C59.8345 45.486 59.7548 45.3426 59.7615 45.0791C59.7747 44.5454 59.7648 44.0117 59.7648 43.4814C59.7648 42.9477 59.7781 42.414 59.7615 41.8837C59.7515 41.5835 59.8444 41.4367 60.1629 41.4434C60.8794 41.4601 61.5926 41.4134 62.3092 41.4768C63.1053 41.5501 63.5532 41.9137 63.7224 42.6942C63.8418 43.2579 63.8451 43.8349 63.6859 44.3953Z" fill="#314E36"/>
<path d="M118.541 45.2025C118.136 45.0291 117.708 44.9457 117.274 44.8756C116.425 44.7422 115.559 44.6955 114.729 44.4654C114.434 44.3853 114.092 44.2652 114.159 43.8717C114.222 43.4814 114.593 43.4547 114.909 43.4114C114.985 43.4014 115.068 43.4247 115.144 43.4414C115.854 43.5982 116.561 43.6015 117.277 43.4814C118.359 43.3013 119.108 42.6542 119.314 41.7169C119.586 40.4728 119.228 39.4988 118.242 38.8718C117.987 38.7083 117.987 38.5215 118.09 38.2981C118.242 37.9779 118.531 37.8544 118.859 37.8077C119.042 37.7811 119.228 37.7644 119.41 37.7377C119.52 37.721 119.636 37.6977 119.606 37.5476C119.553 37.2607 119.49 36.9739 119.423 36.6904C119.4 36.5836 119.327 36.5569 119.218 36.5469C118.564 36.4802 117.685 37.0673 117.47 37.7144C117.383 37.9712 117.493 38.3514 117.247 38.4748C117.025 38.5883 116.703 38.4982 116.428 38.4982C116.428 38.4915 116.428 38.4815 116.428 38.4748C116.202 38.4748 115.973 38.4548 115.751 38.4782C114.733 38.5849 113.774 38.8651 113.383 39.9325C112.994 40.9931 113.054 42.0338 113.94 42.881C114.245 43.1745 113.983 43.2146 113.774 43.2746C113.353 43.3947 113.074 43.6515 113.011 44.0985C112.948 44.5354 113.127 44.879 113.469 45.1391C113.585 45.2259 113.714 45.2926 113.84 45.3693C113.913 45.416 114.043 45.4193 114.023 45.5427C114.01 45.6295 113.91 45.6395 113.837 45.6662C112.941 46.0064 112.633 46.4166 112.63 47.2739C112.626 48.1011 113.011 48.6447 113.83 48.9683C114.355 49.1751 114.905 49.2485 115.463 49.2852C116.514 49.3519 117.559 49.3285 118.554 48.9249C119.384 48.588 119.785 47.9476 119.792 47.0571C119.798 46.1731 119.374 45.5494 118.544 45.1958L118.541 45.2025ZM116.209 39.3287C117.367 39.2887 117.987 39.8457 118.023 40.9531C118.06 42.0638 117.499 42.6442 116.362 42.6776C115.224 42.7109 114.58 42.1672 114.54 41.1432C114.497 39.9791 115.061 39.3654 116.209 39.3287ZM118.461 47.6741C118.183 48.1044 117.718 48.2145 117.264 48.2979C116.916 48.3646 116.554 48.3679 116.189 48.3979C115.668 48.3379 115.134 48.3479 114.63 48.1578C113.943 47.9009 113.678 47.434 113.804 46.7235C113.9 46.1965 114.507 45.6828 115.088 45.7395C115.993 45.8296 116.912 45.883 117.788 46.1565C118.548 46.3933 118.84 47.0771 118.458 47.6708L118.461 47.6741Z" fill="#314E36"/>
<path d="M148.078 40.7663C147.816 39.362 147.017 38.6382 145.726 38.4882C144.386 38.3314 143.457 38.8851 142.847 40.1926C142.81 40.2693 142.81 40.3827 142.658 40.366C142.658 40.316 142.635 40.2593 142.651 40.2159C143.026 39.0785 142.96 37.9011 142.956 36.7304C142.956 35.9132 143.039 35.9999 142.237 35.9965C141.603 35.9932 141.6 35.9965 141.6 36.657C141.6 39.6289 141.6 42.6008 141.6 45.5761C141.6 46.5534 141.6 46.54 142.568 46.54C142.907 46.54 142.983 46.4333 142.903 46.1164C142.797 45.6861 142.721 45.2458 142.621 44.7489C142.847 44.8423 142.854 44.9757 142.903 45.0791C143.451 46.2532 144.396 46.8035 145.653 46.6734C146.94 46.54 147.76 45.8496 148.042 44.5787C148.32 43.3179 148.314 42.0304 148.078 40.7663ZM146.728 44.2085C146.532 45.1058 146.008 45.6228 145.196 45.6961C144.227 45.7829 143.55 45.3859 143.199 44.5254C143.069 44.2152 142.983 43.885 142.973 43.5581C142.95 42.7742 142.893 41.9871 143.033 41.2066C143.258 39.9491 144.098 39.312 145.315 39.4755C146.015 39.5688 146.423 39.9958 146.639 40.6395C146.705 40.8397 146.768 41.0498 146.778 41.2599C146.798 41.6969 146.785 42.1372 146.785 42.5775C146.804 43.1211 146.844 43.6682 146.725 44.2085H146.728Z" fill="#314E36"/>
<path d="M81.722 51.8668C81.722 51.7467 81.7187 51.6267 81.7088 51.5066C81.7021 51.4098 81.6656 51.3031 81.5562 51.3031C81.2112 51.2931 80.8662 51.2898 80.5245 51.3031C80.3852 51.3098 80.3885 51.4565 80.3885 51.5566C80.3885 52.5806 80.3221 53.6079 80.4648 54.6286C80.5145 54.9788 80.697 55.3124 80.6406 55.7126C80.488 55.6192 80.4747 55.4891 80.4283 55.3857C79.8942 54.2317 78.972 53.6846 77.7147 53.778C76.4541 53.8748 75.6049 54.5352 75.3063 55.7893C74.968 57.2069 74.968 58.6479 75.3329 60.0621C75.6248 61.1995 76.4774 61.8666 77.6218 61.9667C78.9289 62.0801 79.8544 61.5697 80.3852 60.4557C80.4449 60.3289 80.4614 60.1722 80.6572 60.0488C80.6903 60.4257 80.5444 60.7192 80.488 61.0261C80.3288 61.8599 80.3221 61.8599 81.1614 61.8499C81.722 61.8432 81.722 61.8432 81.722 61.2629C81.722 58.1308 81.722 54.9955 81.722 51.8635V51.8668ZM80.1662 59.7119C79.8345 60.6425 79.1213 61.0961 78.1294 61.0027C77.2801 60.9227 76.7129 60.3656 76.5736 59.3983C76.4276 58.3777 76.4243 57.3503 76.5769 56.333C76.7129 55.4224 77.2868 54.8354 78.0365 54.7687C79.1279 54.6753 79.8212 55.0889 80.1629 56.0395C80.3785 56.6399 80.3686 57.2703 80.3818 57.894C80.3652 58.5044 80.3752 59.1215 80.1662 59.7085V59.7119Z" fill="#314E36"/>
<path d="M124.754 55.9895C124.499 54.6252 123.656 53.9148 122.339 53.7847C121.062 53.6613 120.143 54.2183 119.559 55.4591C119.52 55.5392 119.533 55.6893 119.364 55.6793C119.35 55.6459 119.321 55.6059 119.33 55.5792C119.719 54.4451 119.632 53.2644 119.636 52.0969C119.636 51.2831 119.636 51.3031 118.806 51.2764C118.402 51.2631 118.295 51.3865 118.299 51.7901C118.315 54.9621 118.309 58.1342 118.309 61.3062C118.309 61.6665 118.489 61.8488 118.849 61.8532C119.715 61.8632 119.709 61.8632 119.533 61.006C119.473 60.7125 119.334 60.4257 119.36 60.0721C119.53 60.1588 119.553 60.2789 119.599 60.3823C120.156 61.5797 121.089 62.1001 122.429 61.97C123.606 61.8532 124.446 61.1428 124.721 59.9187C125.016 58.6178 125 57.2903 124.758 55.9928L124.754 55.9895ZM123.398 59.6051C123.192 60.4557 122.671 60.9293 121.875 61.0027C120.959 61.0827 120.286 60.7192 119.941 59.922C119.536 58.9847 119.619 57.9907 119.662 57.0101C119.672 56.7733 119.725 56.5331 119.785 56.303C120.077 55.1589 120.8 54.6619 121.988 54.7753C122.81 54.8521 123.404 55.5825 123.48 56.6232C123.51 57.0468 123.524 57.4737 123.534 57.7406C123.517 58.4744 123.534 59.0481 123.398 59.6118V59.6051Z" fill="#314E36"/>
<path d="M132.686 59.5184C132.596 59.5017 132.507 59.475 132.414 59.455C132.178 59.4016 132.039 59.4417 131.946 59.7185C131.624 60.6858 130.974 61.0994 129.939 61.0427C129.044 60.9927 128.447 60.449 128.211 59.495C128.135 59.1815 128.138 58.8613 128.108 58.5444C128.078 58.2409 128.208 58.1108 128.523 58.1175C129.226 58.1308 129.929 58.1208 130.633 58.1208C131.362 58.1208 132.092 58.1108 132.822 58.1208C133.131 58.1275 133.247 58.0041 133.25 57.6972C133.253 57.2569 133.283 56.82 133.25 56.3797C133.144 55.0688 132.268 54.0849 130.988 53.838C130.566 53.758 130.142 53.7447 129.72 53.7713C128.221 53.8681 127.206 54.7086 126.887 56.1829C126.645 57.3003 126.658 58.441 126.877 59.5617C127.133 60.8893 127.952 61.6931 129.292 61.9366C129.727 62.0167 130.168 62.0133 130.603 61.97C131.694 61.8599 132.58 61.3929 133.097 60.3656C133.442 59.6751 133.432 59.6585 132.689 59.5217L132.686 59.5184ZM130.769 54.7987C131.561 55.0388 132.125 56.0828 131.926 56.9234C131.873 57.1435 131.721 57.1368 131.561 57.1368C131.047 57.1368 130.53 57.1368 130.016 57.1368C129.515 57.1368 129.01 57.1302 128.51 57.1368C128.241 57.1435 128.135 57.0501 128.138 56.7666C128.148 55.3157 129.395 54.3784 130.772 54.7953L130.769 54.7987Z" fill="#314E36"/>
<path d="M109.432 59.5251C109.316 59.5051 109.196 59.4817 109.08 59.4517C108.835 59.395 108.712 59.4617 108.622 59.7319C108.31 60.6758 107.67 61.0861 106.648 61.0461C105.769 61.0094 105.139 60.4757 104.903 59.5651C104.817 59.2249 104.817 58.8813 104.804 58.5344C104.791 58.2209 104.917 58.1108 105.222 58.1175C105.925 58.1308 106.628 58.1208 107.332 58.1208C108.008 58.1208 108.685 58.1042 109.362 58.1275C109.753 58.1409 109.946 58.0441 109.936 57.6005C109.926 57.1902 109.956 56.7766 109.919 56.363C109.82 55.1389 109.053 54.2183 107.876 53.8914C107.382 53.7547 106.881 53.738 106.376 53.7747C104.88 53.8814 103.882 54.7287 103.56 56.2029C103.341 57.2002 103.378 58.2142 103.497 59.2249C103.679 60.7592 104.529 61.6731 106.021 61.9433C106.443 62.02 106.871 62.0134 107.292 61.9667C108.433 61.8432 109.335 61.3362 109.83 60.2422C110.092 59.6585 110.072 59.6318 109.432 59.5251ZM107.451 54.7987C108.244 55.0455 108.821 56.1262 108.599 56.9367C108.546 57.1302 108.41 57.1369 108.261 57.1369C107.743 57.1369 107.226 57.1369 106.708 57.1369C106.191 57.1369 105.673 57.1302 105.156 57.1369C104.897 57.1402 104.814 57.0335 104.814 56.7766C104.814 55.3257 106.081 54.3718 107.451 54.7987Z" fill="#314E36"/>
<path d="M73.1203 44.2352C72.9909 44.2119 72.8582 44.1919 72.7322 44.1585C72.4767 44.0885 72.3673 44.1752 72.281 44.4387C71.9924 45.3326 71.3455 45.7729 70.4167 45.7562C69.4812 45.7395 68.8476 45.2492 68.5855 44.3319C68.4827 43.9717 68.4495 43.6015 68.4362 43.2279C68.4263 42.911 68.5524 42.7976 68.8542 42.801C69.5708 42.811 70.2873 42.801 71.0038 42.801C71.7071 42.7976 72.4104 42.7809 73.1137 42.8043C73.4653 42.8176 73.5914 42.6709 73.5947 42.3507C73.598 42.0038 73.6278 41.6569 73.6046 41.31C73.5084 39.7356 72.6691 38.7717 71.1564 38.5115C70.8081 38.4515 70.4432 38.4648 70.085 38.4748C68.6021 38.5182 67.4875 39.4588 67.2022 40.9231C67.0065 41.9271 67.0264 42.9477 67.1524 43.9517C67.3183 45.2792 68.0017 46.2298 69.3585 46.5767C69.8527 46.7035 70.357 46.7302 70.8612 46.6801C72.0289 46.56 72.9677 46.0764 73.4819 44.9457C73.7373 44.382 73.7174 44.3419 73.1236 44.2352H73.1203ZM70.9508 39.4688C71.8464 39.6556 72.4801 40.7196 72.2877 41.6269C72.2412 41.847 72.0886 41.847 71.9294 41.847C71.3986 41.847 70.8712 41.847 70.3404 41.847C69.8229 41.847 69.3087 41.847 68.7912 41.847C68.6054 41.847 68.4329 41.8303 68.4462 41.5802C68.5424 40.0225 69.5011 39.1653 70.9508 39.4688Z" fill="#314E36"/>
<path d="M138.833 44.2352C138.704 44.2118 138.571 44.1918 138.445 44.1585C138.196 44.0918 138.053 44.1685 137.987 44.432C137.881 44.8589 137.635 45.2058 137.267 45.4493C136.448 45.9897 134.783 45.9129 134.328 44.4553C134.202 44.0551 134.172 43.6481 134.159 43.2345C134.146 42.9277 134.282 42.8009 134.583 42.8043C135.3 42.8143 136.017 42.8043 136.733 42.8043V42.7976C137.436 42.7976 138.14 42.7843 138.843 42.8043C139.195 42.8143 139.314 42.6675 139.301 42.334C139.287 41.9471 139.314 41.5601 139.297 41.1766C139.241 39.9057 138.451 38.9184 137.241 38.5849C136.76 38.4515 136.269 38.4615 135.781 38.4781C134.371 38.5248 133.283 39.3687 132.965 40.7496C132.679 41.9971 132.686 43.2679 132.981 44.512C133.247 45.6161 133.98 46.3032 135.078 46.5834C135.572 46.7101 136.076 46.7335 136.58 46.6801C137.748 46.56 138.684 46.0697 139.195 44.9423C139.457 44.3686 139.44 44.3453 138.836 44.2352H138.833ZM136.726 39.4788C137.579 39.6956 138.209 40.7996 137.977 41.6535C137.924 41.847 137.785 41.8503 137.639 41.8503C137.111 41.8503 136.58 41.8503 136.053 41.8503C135.539 41.8503 135.021 41.847 134.507 41.8503C134.275 41.8503 134.185 41.7603 134.182 41.5168C134.175 40.0625 135.34 39.1252 136.73 39.4788H136.726Z" fill="#314E36"/>
<path d="M88.1378 45.7428C88.1279 45.7128 88.0483 45.6995 87.9985 45.6861C87.3516 45.536 87.3516 45.536 87.345 44.8623C87.3284 43.398 87.3914 41.9304 87.3118 40.4661C87.2621 39.5789 86.8142 38.9485 85.9683 38.675C84.9565 38.3447 83.9282 38.3648 82.9296 38.7417C82.3027 38.9785 81.8681 39.4288 81.6624 40.0859C81.4302 40.8297 81.4568 40.8764 82.2098 41.0131C82.3126 41.0331 82.4155 41.0565 82.5216 41.0798C82.7372 41.1265 82.85 41.0932 82.8699 40.8163C82.9031 40.356 83.0491 39.9091 83.4803 39.6623C84.094 39.312 84.7508 39.2787 85.3878 39.5822C85.9716 39.8624 86.0081 40.4261 86.0015 40.9898C86.0015 41.0565 85.9948 41.1232 86.0015 41.1899C86.0479 41.5401 85.9219 41.7169 85.5503 41.787C84.9399 41.9037 84.3395 42.0738 83.7424 42.2406C83.1917 42.394 82.6643 42.6142 82.2131 42.9777C81.4932 43.5581 81.3274 44.3419 81.4568 45.2092C81.5563 45.8696 81.9543 46.3099 82.5747 46.5467C83.9381 47.0604 85.5138 46.3933 86.1076 45.0557C86.1574 44.9457 86.1408 44.7822 86.3631 44.7455C86.3299 45.0057 86.2934 45.2459 86.2669 45.486C86.1872 46.1464 86.4626 46.5367 87.1095 46.6601C87.3151 46.7001 87.5308 46.6901 87.7431 46.6935C87.8923 46.6968 88.0018 46.6434 88.0284 46.48C88.0715 46.2365 88.2141 46.0064 88.1378 45.7495V45.7428ZM86.0015 43.358C85.9816 44.6455 85.2319 45.5927 84.1371 45.7095C83.5168 45.7762 83.0889 45.5861 82.8898 45.1525C82.6609 44.6555 82.7903 44.0017 83.2017 43.6115C83.55 43.2813 83.9845 43.1212 84.4324 42.9977C84.7873 42.901 85.1489 42.8143 85.5072 42.7276C85.9783 42.6142 85.9982 42.6308 86.0015 43.1178C86.0015 43.1979 86.0015 43.2779 86.0015 43.358Z" fill="#314E36"/>
<path d="M156.033 44.2252C155.93 44.2052 155.824 44.1885 155.721 44.1585C155.453 44.0784 155.33 44.1785 155.24 44.452C154.945 45.3392 154.292 45.7795 153.369 45.7562C152.454 45.7328 151.817 45.2425 151.558 44.3553C151.452 43.995 151.432 43.6215 151.396 43.2512C151.362 42.921 151.495 42.7943 151.824 42.8009C152.54 42.8143 153.257 42.8043 153.973 42.8043C154.676 42.8009 155.38 42.7843 156.08 42.8043C156.451 42.8176 156.577 42.6608 156.567 42.314C156.557 42.0071 156.574 41.7002 156.567 41.3934C156.541 39.8357 155.688 38.815 154.169 38.5148C153.761 38.4348 153.35 38.4548 152.938 38.4781C151.565 38.5649 150.563 39.3821 150.225 40.7196C149.949 41.807 150.026 42.9143 150.135 44.0151C150.201 44.6788 150.447 45.2825 150.921 45.7662C151.82 46.6868 152.948 46.7935 154.129 46.6267C155.164 46.48 155.964 45.963 156.425 44.989C156.72 44.3686 156.707 44.3486 156.03 44.2185L156.033 44.2252ZM154.259 39.5688C154.932 39.869 155.446 40.9698 155.24 41.6602C155.184 41.8503 155.041 41.8503 154.895 41.8503C154.368 41.8503 153.837 41.8503 153.31 41.8503C152.782 41.8503 152.252 41.8503 151.724 41.8503C151.571 41.8503 151.442 41.8437 151.422 41.6302C151.283 40.0925 152.859 38.9451 154.259 39.5688Z" fill="#314E36"/>
</g>
<defs>
<clipPath id="clip0_5222_4776">
<rect width="165" height="62" fill="white"/>
</clipPath>
</defs>
</svg>
