<svg width="254" height="72" viewBox="0 0 254 72" fill="none" xmlns="http://www.w3.org/2000/svg">
<mask id="mask0_134_7406" style="mask-type:luminance" maskUnits="userSpaceOnUse" x="0" y="0" width="254" height="72">
<path d="M253.313 0.65332H0.685547V71.8472H253.313V0.65332Z" fill="white"/>
</mask>
<g mask="url(#mask0_134_7406)">
<path d="M173.689 0.65332C183.975 9.33323 215.752 -5.62221 212.475 10.0666L204 22.4877C199.924 16.4164 186.974 25.7554 178.164 22.4227L173.689 0.65332Z" fill="#DD052B"/>
<path d="M11.1943 58.6279C12.234 58.7672 13.0974 58.8322 13.9607 58.8322C15.1304 58.8322 17.0335 58.6929 18.6302 57.6068C20.784 56.0472 21.146 53.4014 21.146 51.6283C21.146 49.8552 20.8397 48.1006 19.9206 46.5318C19.1872 45.3064 17.5905 43.2733 12.856 43.2733C12.1783 43.2733 11.7513 43.2733 11.1943 43.3383V58.6187V58.6279ZM11.1943 37.6476C13.1623 37.7869 19.7349 38.1211 19.7349 30.453C19.7349 28.42 19.1779 26.5819 18.1382 25.3658C16.7271 23.8062 14.9447 23.6019 13.4687 23.6019C12.6703 23.6019 11.9369 23.6669 11.1943 23.8062V37.6569V37.6476ZM0.685547 20.6034C0.685547 19.0438 1.05688 18.4311 2.09661 18.0227C3.45198 17.475 7.56449 16.9365 12.299 16.9365C17.3955 16.9365 21.9444 17.345 25.2028 19.5173C27.7836 21.2811 29.993 24.2703 29.993 28.9584C29.993 34.1849 26.9852 37.5084 23.5411 39.3465C23.1141 39.6157 22.6778 39.8199 22.1857 40.0242C22.6128 40.0891 23.0398 40.2284 23.4761 40.3676C29.1297 42.0665 31.8961 47.0238 31.8961 52.5195C31.8961 58.0152 29.009 62.0906 24.7108 64.1329C22.195 65.3583 18.8716 66.036 12.6703 66.036C9.17051 66.036 4.19464 65.7018 2.34726 65.1541C0.815513 64.6807 0.75053 63.938 0.685547 62.0349L0.685547 20.6034Z" fill="#DD052B"/>
<path d="M46.5738 63.7899C46.5738 65.2195 46.0818 65.4887 45.0421 65.4887H37.7918C36.6221 65.4887 36.5664 64.876 36.5664 63.8641V31.8181C36.5664 30.8712 36.6871 30.3235 37.8568 30.3235H45.1071C46.2768 30.3235 46.5831 30.5927 46.5831 31.8831V63.7899H46.5738ZM41.663 26.5823C38.8315 26.5823 36.5664 24.9577 36.5664 21.8942C36.5664 19.2485 38.2281 17.0762 41.6073 17.0762C44.9864 17.0762 46.3418 19.3135 46.3975 21.8292C46.3975 25.0877 44.123 26.5823 41.6722 26.5823" fill="#DD052B"/>
<path d="M52.2266 37.4427C52.2266 34.6577 52.2915 33.7108 53.8883 32.4204C56.8961 30.1089 62.7353 29.3662 65.2511 29.3662C71.276 29.3662 73.7267 31.8077 75.0171 33.0331C76.0012 32.0769 77.2266 30.9258 80.1787 30.1089C82.026 29.5704 83.9848 29.3662 86.0736 29.3662C96.3317 29.3662 96.5823 37.6469 96.638 40.8404V63.8538C96.638 64.9399 96.4523 65.4783 95.4126 65.4783H88.283C87.1783 65.4783 86.8719 65.0049 86.8719 63.9187V41.3788C86.8719 39.0023 86.807 35.7439 83.2514 35.7439C81.7197 35.7439 80.8563 36.3566 80.3643 36.9693C79.3246 38.0554 79.3246 39.2065 79.3246 41.3788V63.9187C79.3246 65.0699 79.0739 65.4783 77.9135 65.4783H71.2203C70.1155 65.4783 69.5585 65.2741 69.5585 63.8538V41.2489C69.5585 39.8935 69.4935 39.2158 69.3729 38.5381C68.8808 36.2266 67.0428 35.5489 65.8731 35.5489C64.7683 35.5489 63.7193 36.0224 63.0509 36.7743C62.0112 37.9254 62.0112 39.2901 62.0112 40.9796V63.7888C62.0112 65.0142 61.7698 65.4876 60.4794 65.4876H53.7212C52.6722 65.4876 52.2451 65.2184 52.2451 63.928V37.452L52.2266 37.4427Z" fill="#DD052B"/>
<path d="M112.188 54.478C112.188 56.2419 112.253 59.9088 115.326 59.9088C118.64 59.9088 120.729 54.4131 120.729 47.6919C120.729 45.6589 120.543 43.2823 119.996 41.175C119.253 38.5293 117.842 36.7655 115.512 36.7655C114.156 36.7655 113.302 37.3782 112.198 38.0558V54.4873L112.188 54.478ZM112.188 33.1635C113.293 32.0124 115.939 29.3666 120.172 29.3666C127.357 29.3666 130.495 36.9697 130.495 45.5939C130.495 55.4342 126.559 66.435 114.648 66.435C110.777 66.435 106.85 65.3488 104.511 63.1765C102.664 61.4777 102.543 59.9181 102.543 56.2512V15.1074C102.543 13.8821 102.914 13.5479 104.019 13.5479H110.712C111.631 13.5479 112.188 13.7521 112.188 15.0425V33.1728V33.1635Z" fill="#DD052B"/>
<path d="M149.292 35.6789C145.913 35.6789 144.929 41.9266 144.929 46.9488C144.929 51.9711 146.154 59.24 149.533 59.24C152.913 59.24 154.017 52.4538 153.897 46.9488C153.776 40.6362 152.235 35.6789 149.292 35.6789ZM149.357 66.4345C141.058 66.4345 134.801 59.7134 134.801 47.97C134.801 35.4746 141.624 29.3662 149.487 29.3662C159.374 29.3662 163.858 38.4639 164.108 47.2923C164.415 58.7665 158.334 66.4345 149.366 66.4345" fill="#DD052B"/>
<path d="M184.067 44.777C186.463 46.0674 191.076 48.6482 191.076 55.3043C191.076 59.9924 188.616 66.435 179.463 66.435C170.31 66.435 167.357 61.0043 167.357 57.8108C167.357 55.3693 168.833 53.262 171.229 53.262C172.148 53.262 173.559 53.5962 174.914 55.6385C175.1 55.982 176.084 57.4673 176.26 57.8108C176.696 58.4885 177.736 60.0481 179.398 60.0481C180.809 60.0481 182.22 58.8227 182.22 56.7247C182.22 54.0139 180.503 53.0578 177.365 51.3589L174.719 49.9293C172.51 48.7781 167.961 46.3273 167.961 39.8104C167.961 37.4339 168.88 29.3574 179.454 29.3574C187.317 29.3574 190.083 33.8413 190.083 36.9605C190.083 38.9935 188.913 41.0358 186.518 41.0358C184.123 41.0358 183.325 39.402 182.461 37.7774C181.784 36.487 180.865 34.7882 179.082 34.7882C177.3 34.7882 176.381 36.487 176.381 38.0466C176.381 40.9709 178.776 42.122 180.744 43.0689L184.058 44.7677L184.067 44.777Z" fill="#DD052B"/>
<path d="M210.479 48.3047C207.1 49.4558 203.72 50.6162 203.72 55.5735C203.72 59.3054 205.809 60.7351 207.592 60.7351C210.414 60.7351 210.479 58.0893 210.479 56.5297V48.314V48.3047ZM219.632 58.2193C219.632 59.7139 219.567 61.4127 218.648 62.7031C217.599 64.2627 214.099 66.435 207.462 66.435C204.881 66.435 194.316 66.37 194.316 56.5204C194.316 47.627 202.486 45.594 210.469 43.6166V40.0889C210.469 37.9816 210.414 35.0667 207.527 35.0667C205.252 35.0667 204.519 37.0347 204.147 38.1859C203.47 40.0889 202.792 42.057 199.97 42.057C197.148 42.057 195.792 39.9497 195.792 37.7124C195.792 33.9062 199.849 29.3574 209.188 29.3574C211.398 29.3574 214.229 29.6266 216.253 30.982C219.567 33.2936 219.632 37.0904 219.632 39.402V58.21V58.2193Z" fill="#DD052B"/>
<path d="M253.276 63.8538C253.276 65.1442 252.97 65.5526 251.679 65.5526H244.856C243.872 65.5526 243.501 65.1442 243.501 63.9188V40.7012C243.501 38.5289 243.501 37.4427 242.582 36.3566C241.783 35.5396 240.558 35.1312 239.444 35.1312C235.508 35.1312 235.452 38.6588 235.452 40.7012V64.058C235.452 65.3484 234.895 65.4876 233.855 65.5526H227.032C225.927 65.5526 225.677 65.0792 225.621 63.8538V36.765C225.621 34.3235 225.621 32.0769 231.581 30.4524C234.227 29.7097 237.476 29.3662 239.936 29.3662C246.694 29.3662 248.969 30.9258 249.767 31.5385C253.202 33.915 253.267 37.1085 253.267 39.0766V63.8538H253.276Z" fill="#DD052B"/>
<path d="M190.186 6.13076L195.524 5.52734L195.329 9.60272L199.729 9.26852L198.996 13.4089L195.19 13.8081L194.921 17.8835L190.381 18.951L190.251 15.0056L186.38 15.3398L186.176 10.9395L190.186 10.4661V6.13076Z" fill="white"/>
<path d="M214.406 14.5225C214.406 14.0769 214.685 13.7798 215.065 13.7798C215.446 13.7798 215.65 13.984 215.734 14.3368C215.984 13.9283 216.495 13.7334 216.996 13.7334C218.426 13.7334 219.141 15.0702 219.141 16.3606C219.141 17.651 218.296 18.8578 216.959 18.8578C216.541 18.8578 216.096 18.7 215.743 18.3936V20.0182C215.743 20.4638 215.465 20.7516 215.075 20.7516C214.685 20.7516 214.416 20.4545 214.416 20.0182V14.5225H214.406ZM216.774 17.6417C217.47 17.6417 217.804 16.9269 217.804 16.3049C217.804 15.6829 217.46 14.9495 216.774 14.9495C216.087 14.9495 215.734 15.6086 215.734 16.2585C215.734 16.9083 216.049 17.6417 216.774 17.6417Z" fill="#DD052B"/>
<path d="M220.051 14.4482C220.051 14.0026 220.404 13.7891 220.728 13.7891C221.081 13.7891 221.378 13.919 221.378 14.3461H221.397C221.648 13.9747 221.917 13.7891 222.325 13.7891C222.65 13.7891 222.975 14.0211 222.975 14.4946C222.975 14.9309 222.576 14.9588 222.177 15.1351C221.777 15.3208 221.378 15.4972 221.378 16.0171V18.0594C221.378 18.505 221.1 18.7928 220.719 18.7928C220.339 18.7928 220.06 18.4957 220.06 18.0594V14.4389L220.051 14.4482Z" fill="#DD052B"/>
<path d="M227.913 16.3049C227.913 17.6881 226.957 18.8578 225.527 18.8578C224.097 18.8578 223.15 17.6881 223.15 16.3049C223.15 14.9217 224.125 13.7334 225.527 13.7334C226.929 13.7334 227.913 14.9588 227.913 16.3049ZM224.478 16.3049C224.478 16.9454 224.812 17.6417 225.527 17.6417C226.242 17.6417 226.585 16.9454 226.585 16.3049C226.585 15.6643 226.26 14.9495 225.527 14.9495C224.794 14.9495 224.478 15.6643 224.478 16.3049Z" fill="#DD052B"/>
<path d="M233.381 18.0691C233.381 18.5147 233.103 18.8025 232.722 18.8025C232.342 18.8025 232.137 18.5982 232.054 18.2455C231.803 18.6539 231.293 18.8489 230.838 18.8489C229.501 18.8489 228.656 17.6049 228.656 16.3517C228.656 15.0984 229.371 13.7245 230.791 13.7245C231.256 13.7245 231.71 13.8823 232.054 14.1887V12.3784C232.054 11.9328 232.332 11.6357 232.722 11.6357C233.112 11.6357 233.381 11.9328 233.381 12.3784V18.0598V18.0691ZM231.014 14.9499C230.327 14.9499 229.984 15.674 229.984 16.3053C229.984 16.9365 230.327 17.6421 231.014 17.6421C231.748 17.6421 232.054 16.9087 232.054 16.2588C232.054 15.609 231.72 14.9499 231.014 14.9499Z" fill="#DD052B"/>
<path d="M234.513 14.5224C234.513 14.0768 234.792 13.7891 235.172 13.7891C235.553 13.7891 235.841 14.0861 235.841 14.5224V16.8897C235.841 17.4467 236.258 17.753 236.695 17.753C237.131 17.753 237.549 17.4467 237.549 16.8897V14.5224C237.549 14.0768 237.827 13.7891 238.208 13.7891C238.589 13.7891 238.876 14.0861 238.876 14.5224V16.9175C238.876 18.0965 238.087 18.8578 236.685 18.8578C235.284 18.8578 234.504 18.0965 234.504 16.9175V14.5224H234.513Z" fill="#DD052B"/>
<path d="M243.314 15.2094C242.98 15.2094 242.692 14.9495 242.265 14.9495C241.504 14.9495 241.151 15.6179 241.151 16.3049C241.151 16.9918 241.55 17.6417 242.265 17.6417C242.599 17.6417 243.101 17.3632 243.249 17.3632C243.565 17.3632 243.825 17.6324 243.825 17.948C243.825 18.635 242.683 18.8578 242.2 18.8578C240.771 18.8578 239.814 17.6881 239.814 16.3049C239.814 14.9217 240.789 13.7334 242.2 13.7334C242.729 13.7334 243.825 13.9283 243.825 14.5689C243.825 14.8474 243.63 15.2002 243.314 15.2002" fill="#DD052B"/>
<path d="M244.976 15.0052H244.679C244.317 15.0052 244.094 14.7824 244.094 14.4203C244.094 14.0861 244.344 13.8355 244.679 13.8355H244.976V13.0464C244.976 12.6008 245.254 12.3037 245.635 12.3037C246.015 12.3037 246.303 12.6008 246.303 13.0464V13.8355H246.684C247.027 13.8355 247.324 13.9933 247.324 14.4203C247.324 14.8473 247.027 15.0052 246.684 15.0052H246.303V18.0687C246.303 18.5143 246.025 18.802 245.635 18.802C245.245 18.802 244.976 18.505 244.976 18.0687V15.0052Z" fill="#DD052B"/>
<path d="M151.464 15.2837C151.214 15.2837 150.703 14.8938 150.276 14.8938C150.035 14.8938 149.821 15.0052 149.821 15.2651C149.821 15.8871 152.124 15.7943 152.124 17.3075C152.124 18.1894 151.372 18.8671 150.23 18.8671C149.478 18.8671 148.373 18.44 148.373 17.8459C148.373 17.6417 148.577 17.2518 148.949 17.2518C149.468 17.2518 149.691 17.7067 150.323 17.7067C150.731 17.7067 150.852 17.5767 150.852 17.326C150.852 16.7133 148.549 16.8062 148.549 15.2837C148.549 14.3647 149.292 13.7334 150.35 13.7334C151.01 13.7334 152.012 14.0397 152.012 14.6896C152.012 14.9959 151.78 15.2837 151.474 15.2837" fill="#DD052B"/>
<path d="M152.794 14.95C152.701 14.6808 152.654 14.5137 152.654 14.3187C152.654 14.0216 152.933 13.7803 153.313 13.7803C153.638 13.7803 153.87 13.9938 153.945 14.3094L154.706 16.8438H154.724L155.504 14.3651C155.606 14.0031 155.792 13.7803 156.182 13.7803C156.572 13.7803 156.758 14.0031 156.86 14.3651L157.63 16.8438H157.649L158.41 14.3094C158.484 13.9938 158.716 13.7803 159.041 13.7803C159.431 13.7803 159.7 14.0216 159.7 14.4208C159.7 14.5694 159.635 14.7179 159.57 14.9221L158.438 18.1249C158.299 18.5148 158.066 18.8026 157.63 18.8026C157.222 18.8026 156.99 18.5705 156.869 18.1806L156.191 16.0361H156.173L155.486 18.1806C155.365 18.5705 155.124 18.8026 154.724 18.8026C154.288 18.8026 154.065 18.5148 153.926 18.1249L152.803 14.9407L152.794 14.95Z" fill="#DD052B"/>
<path d="M161.909 12.5268C161.909 12.9446 161.574 13.2881 161.166 13.2881C160.758 13.2881 160.414 12.926 160.414 12.5268C160.414 12.1462 160.767 11.8027 161.166 11.8027C161.565 11.8027 161.909 12.1462 161.909 12.5268ZM160.498 14.5227C160.498 14.0771 160.776 13.7894 161.166 13.7894C161.556 13.7894 161.825 14.0864 161.825 14.5227V18.069C161.825 18.5146 161.547 18.8024 161.166 18.8024C160.785 18.8024 160.498 18.5053 160.498 18.069V14.5227Z" fill="#DD052B"/>
<path d="M166.095 15.2837C165.845 15.2837 165.343 14.8938 164.907 14.8938C164.666 14.8938 164.452 15.0052 164.452 15.2651C164.452 15.8871 166.754 15.7943 166.754 17.3075C166.754 18.1894 166.012 18.8671 164.861 18.8671C164.118 18.8671 163.004 18.44 163.004 17.8459C163.004 17.6417 163.208 17.2518 163.579 17.2518C164.099 17.2518 164.331 17.7067 164.953 17.7067C165.362 17.7067 165.483 17.5767 165.483 17.326C165.483 16.7133 163.18 16.8062 163.18 15.2837C163.18 14.3647 163.923 13.7334 164.981 13.7334C165.64 13.7334 166.643 14.0397 166.643 14.6896C166.643 14.9959 166.411 15.2837 166.095 15.2837Z" fill="#DD052B"/>
<path d="M170.765 15.2837C170.515 15.2837 170.013 14.8938 169.577 14.8938C169.336 14.8938 169.122 15.0052 169.122 15.2651C169.122 15.8871 171.424 15.7943 171.424 17.3075C171.424 18.1894 170.682 18.8671 169.53 18.8671C168.779 18.8671 167.674 18.44 167.674 17.8459C167.674 17.6417 167.878 17.2518 168.249 17.2518C168.76 17.2518 168.992 17.7067 169.623 17.7067C170.032 17.7067 170.152 17.5767 170.152 17.326C170.152 16.7133 167.85 16.8062 167.85 15.2837C167.85 14.3647 168.602 13.7334 169.651 13.7334C170.31 13.7334 171.313 14.0397 171.313 14.6896C171.313 14.9959 171.081 15.2837 170.765 15.2837Z" fill="#DD052B"/>
</g>
</svg>
