<?xml version="1.0" encoding="UTF-8"?>
<svg id="Ebene_2" data-name="Ebene 2" xmlns="http://www.w3.org/2000/svg" viewBox="0 0 1000 222.11">
  <defs>
    <style>
      .cls-1 {
        fill: #fff;
      }

      .cls-2 {
        fill: #ae3e2c;
      }

      .cls-3 {
        fill: #66a6d7;
      }
    </style>
  </defs>
  <g id="Ebene_1-2" data-name="Ebene 1">
    <g>
      <g>
        <path class="cls-3" d="M537.15,132.08c-2.87,6.38-8.6,10.03-16.67,10.03-10.55,0-18.63-7.81-18.63-20.06s7.94-19.93,18.63-19.93c7.42,0,13.29,3.39,16.41,9.51,.39,.78,15.11-1.82,15.11-12.77,0-4.17-2.21-9.25-7.43-13.42-5.34-4.17-13.68-7.29-25.53-7.29-26.18,0-44.02,18.36-44.02,44.03s17.71,43.9,43.89,43.9c12.11,0,20.45-3.26,25.92-7.56,5.21-4.3,7.55-9.51,7.55-13.68,0-11.07-14.85-13.55-15.24-12.77Zm-183.82-52.75h-3.91c-7.16,0-10.94,4.04-10.94,12.11v19.54h-26.57v-19.54c0-8.08-3.91-12.11-11.46-12.11h-3.78c-7.16,0-11.07,4.04-11.07,12.11v61.35c0,7.94,3.91,12.11,11.07,12.11h3.78c7.55,0,11.46-4.17,11.46-12.11v-19.93h26.57v19.93c0,7.94,3.78,12.11,10.94,12.11h3.91c7.42,0,11.46-4.17,11.46-12.11v-61.35c0-8.08-4.04-12.11-11.46-12.11Zm67.61-1.17c-25.66,0-44.29,18.36-44.29,44.03s18.37,43.9,44.29,43.9,44.29-18.24,44.29-44.03-18.37-43.9-44.29-43.9Zm0,64.61c-11.07,0-18.5-8.08-18.5-20.71s7.29-20.84,18.5-20.84,18.5,8.34,18.5,20.97-7.29,20.58-18.5,20.58Zm481.75-10.68l2.74-.78c10.29-3.91,15.63-12.38,15.63-23.58,0-18.11-11.59-27.74-34.91-27.74h-25.92c-8.59,0-13.41,5.08-13.41,14.59v55.23c0,9.51,3.91,15.11,11.07,15.11h3.65c7.56,0,11.46-4.3,11.46-12.11v-15.63h3.65l12.89,16.67c5.34,7.55,9.38,11.07,17.46,11.07,11.2,0,15.76-7.94,14.98-8.99l-19.28-23.84Zm-19.41-12.5h-10.68v-19.8h10.55c8.08,0,11.85,3.39,11.85,9.9s-3.91,9.9-11.72,9.9Zm-252.6-40.25h-3.91c-7.16,0-10.94,4.04-10.94,12.11v19.54h-26.57v-19.54c0-8.08-3.91-12.11-11.46-12.11h-3.78c-7.16,0-11.07,4.04-11.07,12.11v61.35c0,7.94,3.91,12.11,11.07,12.11h3.78c7.55,0,11.46-4.17,11.46-12.11v-19.93h26.57v19.93c0,7.94,3.78,12.11,10.94,12.11h3.91c7.42,0,11.46-4.17,11.46-12.11v-61.35c0-8.08-4.04-12.11-11.46-12.11Zm159.98-1.17c-25.66,0-44.29,18.36-44.29,44.03s18.37,43.9,44.29,43.9,44.29-18.24,44.29-44.03-18.37-43.9-44.29-43.9Zm0,64.61c-11.07,0-18.5-8.08-18.5-20.71s7.3-20.84,18.5-20.84,18.5,8.34,18.5,20.97-7.3,20.58-18.5,20.58Zm197.23-62.78h-40.77c-8.6,0-13.41,5.08-13.41,14.59v55.1c0,9.51,3.91,15.11,11.07,15.11h4.17c7.55,0,11.46-4.17,11.46-12.11v-16.93h18.5c8.47,0,12.12-3.26,12.12-10.03v-.52c0-6.38-3.52-9.64-12.12-9.64h-19.54v-14.33h28.53c8.34,0,12.11-3.26,12.11-10.42v-.78c0-6.77-3.78-10.03-12.11-10.03Zm-295.58,0h-22.27c-7.82,0-13.55,5.08-13.55,14.59v55.36c0,7.94,6.38,14.33,14.59,14.33h20.71c27.61,0,45.07-16.54,45.07-42.46s-16.93-41.81-44.55-41.81Zm-1.17,62.13h-8.73v-39.99h8.99c11.98,0,19.67,7.03,19.67,19.67s-7.95,20.32-19.93,20.32ZM110.9,0C49.65,0,0,46.25,0,118.79v103.01H103.01c72.88,0,118.79-49.65,118.79-110.9S172.14,0,110.9,0Z"/>
        <path class="cls-1" d="M163.21,77.48c0-10.95-8.87-19.82-19.82-19.82s-19.82,8.27-19.82,21.23v18.41h18.41c13.03,0,21.23-8.87,21.23-19.82ZM45.46,159.18v6.83c6.84,7.7,14.56,14.59,23,20.54,2.4-.05,4.55-.39,6.43-1.01-11.11-7.24-21.04-16.13-29.43-26.36Zm16.35,27.39c-5.75-4.4-11.13-9.25-16.11-14.49,1.13,9.4,6.72,14.37,16.11,14.49Zm-16.35-57.83v9.17c9.56,15.74,22.75,29.02,38.39,38.72,.49-1.4,.83-2.94,1.03-4.63-16.66-10.66-30.32-25.6-39.41-43.27Zm0,16.45v7.62c9.18,12.14,20.54,22.54,33.48,30.65,1.23-.9,2.26-2,3.12-3.28-14.53-8.95-27.02-20.9-36.6-34.99Zm39.65-53.48c-1.05-4.5-1.63-9.18-1.63-13.99,0-3.09,.24-6.13,.68-9.11-.71-2.5-1.79-4.6-3.31-6.24-1.18,4.93-1.82,10.06-1.82,15.35,0,9.85,2.19,19.2,6.08,27.61v-13.62Zm-39.65,14.31v13.48c8.26,19.61,22.16,36.27,39.65,47.98v-5.43c-18.93-13.47-33.13-33.14-39.65-56.03Zm117.58,8.17c-.62-1.44-1.38-2.73-2.33-3.81-4.77,2.31-10.09,3.64-15.73,3.64-8.95,0-17.14-3.27-23.47-8.66h-6.39c7.45,8.04,18.06,13.11,29.86,13.11,6.49,0,12.61-1.57,18.06-4.28Zm-21.69-8.84h-13.1c4.89,2.97,10.6,4.71,16.73,4.71,4.36,0,8.51-.88,12.31-2.45-2.44-1.38-5.46-2.12-9.03-2.21-1.08,.13-2.17,.21-3.29,.21-1.23,0-2.44-.11-3.63-.26Zm3.63,21.51c7.03,0,13.71-1.51,19.76-4.18-.05-1.69-.23-3.24-.52-4.69-5.84,2.8-12.34,4.41-19.24,4.41-14.21,0-26.86-6.69-35.06-17.06h-5.55c8.86,12.97,23.75,21.51,40.61,21.51Zm-19.67,43.88c.12,1.69,.35,3.26,.73,4.68,6.14,1.19,12.47,1.83,18.94,1.83s12.76-.64,18.88-1.82c.4-1.42,.65-3,.78-4.69-6.35,1.34-12.92,2.06-19.66,2.06s-13.32-.72-19.67-2.06Zm-.15-8.65v4.57c6.39,1.42,13.01,2.2,19.82,2.2s13.43-.77,19.82-2.2v-4.57c-6.37,1.5-13,2.31-19.82,2.31s-13.45-.82-19.82-2.31Zm0-8.63v4.58c6.35,1.57,12.99,2.42,19.82,2.42s13.47-.85,19.82-2.42v-4.58c-6.33,1.66-12.97,2.55-19.82,2.55s-13.49-.89-19.82-2.55Zm0-8.73v4.63c6.32,1.75,12.96,2.7,19.82,2.7s13.51-.95,19.82-2.7v-4.63c-6.29,1.86-12.94,2.88-19.82,2.88s-13.53-1.02-19.82-2.88Zm19.82-13.92c-19.14,0-35.9-10.22-45.24-25.46h-5.21c9.79,17.81,28.73,29.91,50.45,29.91,6.97,0,13.63-1.31,19.82-3.59v-4.74c-6.13,2.48-12.81,3.88-19.82,3.88ZM49.89,77.71c0-5.77,.55-11.41,1.54-16.91-3.76,2.86-5.81,7.67-5.93,14.5-.01,.51-.03,1.02-.04,1.53v1.75c.28,32.07,15.79,60.57,39.65,78.59v-5.66c-21.47-17.45-35.22-44.04-35.22-73.8Zm40.18,27.64h-4.95c6.83,14.73,18.93,26.54,33.88,32.97h6.15v2.29c6.26,1.98,12.92,3.05,19.82,3.05s13.56-1.07,19.82-3.05v-4.7c-6.22,2.13-12.89,3.3-19.82,3.3-23.97,0-44.76-13.8-54.9-33.86Zm37.7,74.39c1.43,2.42,3.46,4.19,6.03,5.33,3.67,.38,7.4,.58,11.17,.58,3.58,0,7.11-.18,10.6-.53,2.73-1.13,4.89-2.91,6.41-5.35-5.54,.92-11.22,1.42-17.02,1.42s-11.6-.52-17.2-1.46ZM60.63,57.77c-1.72,.1-3.31,.36-4.75,.8-1.33,6.18-2.04,12.58-2.04,19.14,0,27.35,12.13,51.91,31.27,68.63v-6.03c-16.51-15.79-26.82-38.01-26.82-62.6,0-6.86,.83-13.53,2.34-19.94Zm6.06,19.94c0-6.89,.9-13.58,2.59-19.95-.49-.02-.93-.1-1.44-.1h-3.13c-1.61,6.42-2.47,13.14-2.47,20.05,0,23.92,10.21,45.49,26.49,60.61h6.76c-17.56-14.37-28.8-36.2-28.8-60.61Zm8.4,0c0-6.19,.82-12.19,2.34-17.91-1.25-.67-2.65-1.17-4.2-1.52-1.68,6.2-2.59,12.71-2.59,19.43,0,24.99,12.41,47.12,31.37,60.61h8.23c-20.98-12.07-35.15-34.71-35.15-60.61Z"/>
      </g>
      <g>
        <path class="cls-3" d="M337.38,215.4c0-1.77,2.29-3.07,2.45-2.86,1.93,2.81,5.52,5.15,10.15,5.15s7.34-1.92,7.34-5.25c0-3.8-3.95-4.68-8.43-5.72-5.2-1.2-10.61-3.02-10.61-9.84,0-5.72,4.94-9.78,12.13-9.78,4.42,0,7.65,1.25,9.52,2.76,1.35,1.04,2.03,2.24,2.03,3.22,0,1.93-2.39,3.12-2.5,2.97-1.77-2.55-5.1-4.53-9-4.53-4.21,0-6.97,2.03-6.97,5.15,0,3.7,3.28,4.27,7.96,5.36,5.72,1.3,11.24,3.54,11.24,10.04s-4.79,10.04-12.64,10.04c-5.21,0-8.9-1.61-10.93-3.49-1.15-1.09-1.72-2.24-1.72-3.23Z"/>
        <path class="cls-3" d="M372.89,220.08l-6.25-22.43c-.1-.31,1.56-1.51,3.07-1.51,1.09,0,2.29,.62,2.71,2.76l3.9,17.54,4.79-15.14c.36-1.25,1.25-1.82,3.17-1.82s2.76,.57,3.12,1.82l4.63,15.04,3.85-17.44c.36-2.13,1.61-2.76,2.65-2.76,1.51,0,3.02,1.25,2.97,1.51l-6.19,22.43c-.31,1.25-1.25,1.67-3.12,1.67-2.13,0-2.71-.42-3.17-1.82l-4.84-15.14-5,15.14c-.47,1.35-1.09,1.82-3.12,1.82-1.87,0-2.81-.42-3.17-1.67Z"/>
        <path class="cls-3" d="M409.71,185.37c1.93,0,3.02,1.15,3.02,3.02s-1.09,2.97-3.07,2.97-3.07-1.14-3.07-2.97,1.14-3.02,3.12-3.02Zm-2.71,13.27c0-1.88,.99-2.5,2.34-2.5h.52c1.35,0,2.29,.57,2.29,2.5v20.56c0,1.87-.94,2.45-2.29,2.45h-.52c-1.35,0-2.34-.57-2.34-2.45v-20.56Z"/>
        <path class="cls-3" d="M417.99,216.75c0-1.61,1.87-2.45,2.03-2.34,1.67,2.13,4.47,3.75,8.43,3.75,3.54,0,5.52-1.3,5.52-3.38,0-2.55-2.34-3.02-6.45-3.9-3.7-.78-8.8-1.93-8.8-7.23,0-4.68,3.9-7.86,9.99-7.86,4.79,0,7.81,1.51,9,3.28,.42,.57,.63,1.2,.63,1.77,0,1.61-1.98,2.55-2.08,2.39-1.56-2.08-4.16-3.54-7.34-3.54-3.54,0-5.41,1.35-5.41,3.43,0,2.29,2.19,2.81,6.25,3.7,3.85,.83,9.21,1.98,9.21,7.39,0,4.79-3.95,7.86-10.41,7.86-3.96,0-6.82-.94-8.59-2.19-1.3-.94-1.98-2.08-1.98-3.12Z"/>
        <path class="cls-3" d="M443.19,216.75c0-1.61,1.87-2.45,2.03-2.34,1.67,2.13,4.47,3.75,8.43,3.75,3.54,0,5.52-1.3,5.52-3.38,0-2.55-2.34-3.02-6.45-3.9-3.7-.78-8.8-1.93-8.8-7.23,0-4.68,3.9-7.86,9.99-7.86,4.79,0,7.81,1.51,9,3.28,.42,.57,.63,1.2,.63,1.77,0,1.61-1.98,2.55-2.08,2.39-1.56-2.08-4.16-3.54-7.34-3.54-3.54,0-5.41,1.35-5.41,3.43,0,2.29,2.19,2.81,6.25,3.7,3.85,.83,9.21,1.98,9.21,7.39,0,4.79-3.95,7.86-10.41,7.86-3.96,0-6.82-.94-8.59-2.19-1.3-.94-1.98-2.08-1.98-3.12Z"/>
        <path class="cls-3" d="M480.52,219.2v-28.62c0-1.82,.88-3.02,2.55-3.02h.89c1.61,0,2.24,.68,3.23,2.03l16.65,23.63v-23.21c0-1.61,.68-2.45,2.24-2.45h.63c1.46,0,2.18,.83,2.18,2.45v28.62c0,1.87-.94,3.02-2.5,3.02h-.42c-1.61,0-2.03-.47-2.86-1.61l-17.54-24.82v23.99c0,1.61-.73,2.45-2.29,2.45h-.57c-1.51,0-2.18-.83-2.18-2.45Z"/>
        <path class="cls-3" d="M539.55,198.64v22.43c0,.16-.83,.57-1.82,.57-1.25,0-2.55-.47-3.07-2.34-.1-.47-.21-.99-.21-1.61-1.77,2.55-4.47,4.37-8.33,4.37-6.61,0-9.63-4.48-9.63-10.72v-12.7c0-1.88,.94-2.5,2.24-2.5h.57c1.35,0,2.29,.57,2.29,2.5v12.07c0,4.32,2.19,6.87,5.99,6.87,3.12,0,5.57-1.77,6.87-4.42v-14.52c0-1.88,.94-2.5,2.24-2.5h.57c1.35,0,2.29,.57,2.29,2.5Z"/>
        <path class="cls-3" d="M548.83,213.84v-13.22h-1.82c-1.61,0-2.24-.68-2.24-1.93v-.36c0-1.25,.62-1.93,2.24-1.93h1.82v-3.85c0-1.77,.88-2.45,2.29-2.45h.52c1.35,0,2.24,.52,2.24,2.45v3.85h5.67c1.61,0,2.19,.63,2.19,1.88v.36c0,1.3-.63,1.98-2.24,1.98h-5.67v12.65c0,3.12,.88,4.63,3.33,4.63,1.61,0,2.76-.73,3.54-1.77,.16-.16,1.46,.57,1.46,2.18,0,.83-.36,1.61-1.09,2.29-.99,.89-2.6,1.51-4.74,1.51-5.15,0-7.49-2.86-7.49-8.27Z"/>
        <path class="cls-3" d="M582.88,199.11c0,1.98-1.46,2.76-1.56,2.65-.78-.62-1.77-1.09-3.18-1.09-4.06,0-5.67,3.95-5.67,9.73v8.79c0,1.87-.99,2.45-2.29,2.45h-.57c-1.35,0-2.29-.57-2.29-2.45v-22.48c0-.16,.83-.57,1.88-.57,1.2,0,2.5,.52,3.02,2.5,.1,.52,.21,1.14,.21,1.87,1.09-3.07,3.18-4.74,6.35-4.74,2.6,0,4.11,1.25,4.11,3.33Z"/>
        <path class="cls-3" d="M590.64,185.37c1.93,0,3.02,1.15,3.02,3.02s-1.09,2.97-3.07,2.97-3.07-1.14-3.07-2.97,1.14-3.02,3.12-3.02Zm-2.71,13.27c0-1.88,.99-2.5,2.34-2.5h.52c1.35,0,2.29,.57,2.29,2.5v20.56c0,1.87-.94,2.45-2.29,2.45h-.52c-1.35,0-2.34-.57-2.34-2.45v-20.56Z"/>
        <path class="cls-3" d="M602.62,213.84v-13.22h-1.82c-1.61,0-2.24-.68-2.24-1.93v-.36c0-1.25,.62-1.93,2.24-1.93h1.82v-3.85c0-1.77,.88-2.45,2.29-2.45h.52c1.35,0,2.24,.52,2.24,2.45v3.85h5.67c1.61,0,2.19,.63,2.19,1.88v.36c0,1.3-.63,1.98-2.24,1.98h-5.67v12.65c0,3.12,.88,4.63,3.33,4.63,1.61,0,2.76-.73,3.54-1.77,.16-.16,1.46,.57,1.46,2.18,0,.83-.36,1.61-1.09,2.29-.99,.89-2.6,1.51-4.74,1.51-5.15,0-7.49-2.86-7.49-8.27Z"/>
        <path class="cls-3" d="M624.02,185.37c1.93,0,3.02,1.15,3.02,3.02s-1.09,2.97-3.07,2.97-3.07-1.14-3.07-2.97,1.14-3.02,3.12-3.02Zm-2.71,13.27c0-1.88,.99-2.5,2.34-2.5h.52c1.35,0,2.29,.57,2.29,2.5v20.56c0,1.87-.94,2.45-2.29,2.45h-.52c-1.35,0-2.34-.57-2.34-2.45v-20.56Z"/>
        <path class="cls-3" d="M645.78,195.78c7.65,0,13.06,5.52,13.06,13.22s-5.41,13.11-13.11,13.11-13.11-5.46-13.11-13.22,5.41-13.11,13.17-13.11Zm-.05,4.21c-4.79,0-8.38,3.75-8.38,8.9s3.59,9,8.38,9,8.33-3.8,8.33-8.9-3.49-9-8.33-9Z"/>
        <path class="cls-3" d="M687.84,206.5v12.7c0,1.87-.99,2.45-2.29,2.45h-.57c-1.35,0-2.29-.57-2.29-2.45v-12.07c0-4.21-2.13-6.82-5.78-6.82-3.28,0-5.78,1.77-7.03,4.37v14.52c0,1.87-.99,2.45-2.29,2.45h-.57c-1.35,0-2.29-.57-2.29-2.45v-22.48c0-.16,.83-.57,1.88-.57,1.4,0,3.12,.73,3.22,4.06,1.77-2.6,4.53-4.42,8.33-4.42,6.61,0,9.68,4.53,9.68,10.72Z"/>
        <path class="cls-3" d="M703.37,215.4c0-1.77,2.29-3.07,2.45-2.86,1.93,2.81,5.52,5.15,10.15,5.15s7.34-1.92,7.34-5.25c0-3.8-3.95-4.68-8.43-5.72-5.2-1.2-10.61-3.02-10.61-9.84,0-5.72,4.94-9.78,12.13-9.78,4.42,0,7.65,1.25,9.52,2.76,1.35,1.04,2.03,2.24,2.03,3.22,0,1.93-2.39,3.12-2.5,2.97-1.77-2.55-5.1-4.53-9-4.53-4.21,0-6.97,2.03-6.97,5.15,0,3.7,3.28,4.27,7.96,5.36,5.72,1.3,11.24,3.54,11.24,10.04s-4.79,10.04-12.64,10.04c-5.21,0-8.9-1.61-10.93-3.49-1.15-1.09-1.72-2.24-1.72-3.23Z"/>
        <path class="cls-3" d="M746.43,195.78c7.65,0,13.06,5.52,13.06,13.22s-5.41,13.11-13.11,13.11-13.11-5.46-13.11-13.22,5.41-13.11,13.17-13.11Zm-.05,4.21c-4.79,0-8.38,3.75-8.38,8.9s3.59,9,8.38,9,8.33-3.8,8.33-8.9-3.49-9-8.33-9Z"/>
        <path class="cls-3" d="M765.6,219.2v-32.94c0-.16,.88-.57,1.87-.57,1.61,0,3.28,.83,3.28,4.42v29.09c0,1.87-.94,2.45-2.29,2.45h-.52c-1.35,0-2.34-.57-2.34-2.45Z"/>
        <path class="cls-3" d="M801.25,198.64v22.43c0,.16-.83,.57-1.82,.57-1.25,0-2.55-.47-3.07-2.34-.1-.47-.21-.99-.21-1.61-1.77,2.55-4.47,4.37-8.33,4.37-6.61,0-9.63-4.48-9.63-10.72v-12.7c0-1.88,.94-2.5,2.24-2.5h.57c1.35,0,2.29,.57,2.29,2.5v12.07c0,4.32,2.19,6.87,5.99,6.87,3.12,0,5.57-1.77,6.87-4.42v-14.52c0-1.88,.94-2.5,2.24-2.5h.57c1.35,0,2.29,.57,2.29,2.5Z"/>
        <path class="cls-3" d="M810.53,213.84v-13.22h-1.82c-1.61,0-2.24-.68-2.24-1.93v-.36c0-1.25,.63-1.93,2.24-1.93h1.82v-3.85c0-1.77,.89-2.45,2.29-2.45h.52c1.36,0,2.24,.52,2.24,2.45v3.85h5.67c1.61,0,2.19,.63,2.19,1.88v.36c0,1.3-.62,1.98-2.24,1.98h-5.67v12.65c0,3.12,.89,4.63,3.33,4.63,1.61,0,2.76-.73,3.54-1.77,.16-.16,1.46,.57,1.46,2.18,0,.83-.36,1.61-1.09,2.29-.99,.89-2.6,1.51-4.73,1.51-5.15,0-7.5-2.86-7.5-8.27Z"/>
        <path class="cls-3" d="M831.93,185.37c1.92,0,3.02,1.15,3.02,3.02s-1.09,2.97-3.07,2.97-3.07-1.14-3.07-2.97,1.14-3.02,3.12-3.02Zm-2.71,13.27c0-1.88,.99-2.5,2.34-2.5h.52c1.35,0,2.29,.57,2.29,2.5v20.56c0,1.87-.94,2.45-2.29,2.45h-.52c-1.35,0-2.34-.57-2.34-2.45v-20.56Z"/>
        <path class="cls-3" d="M853.69,195.78c7.65,0,13.06,5.52,13.06,13.22s-5.41,13.11-13.11,13.11-13.11-5.46-13.11-13.22,5.41-13.11,13.17-13.11Zm-.05,4.21c-4.79,0-8.38,3.75-8.38,8.9s3.59,9,8.38,9,8.33-3.8,8.33-8.9-3.49-9-8.33-9Z"/>
        <path class="cls-3" d="M895.75,206.5v12.7c0,1.87-.99,2.45-2.29,2.45h-.57c-1.36,0-2.29-.57-2.29-2.45v-12.07c0-4.21-2.13-6.82-5.78-6.82-3.28,0-5.78,1.77-7.03,4.37v14.52c0,1.87-.99,2.45-2.29,2.45h-.57c-1.36,0-2.29-.57-2.29-2.45v-22.48c0-.16,.83-.57,1.87-.57,1.41,0,3.12,.73,3.23,4.06,1.77-2.6,4.53-4.42,8.33-4.42,6.61,0,9.68,4.53,9.68,10.72Z"/>
        <path class="cls-3" d="M901.08,216.75c0-1.61,1.87-2.45,2.03-2.34,1.67,2.13,4.47,3.75,8.43,3.75,3.54,0,5.52-1.3,5.52-3.38,0-2.55-2.34-3.02-6.45-3.9-3.7-.78-8.8-1.93-8.8-7.23,0-4.68,3.9-7.86,9.99-7.86,4.79,0,7.81,1.51,9,3.28,.42,.57,.62,1.2,.62,1.77,0,1.61-1.97,2.55-2.08,2.39-1.56-2.08-4.16-3.54-7.34-3.54-3.54,0-5.41,1.35-5.41,3.43,0,2.29,2.19,2.81,6.25,3.7,3.85,.83,9.21,1.98,9.21,7.39,0,4.79-3.96,7.86-10.41,7.86-3.95,0-6.81-.94-8.59-2.19-1.3-.94-1.98-2.08-1.98-3.12Z"/>
      </g>
      <g>
        <path class="cls-2" d="M320.62,216.72c0,3.28-1.61,5.01-4.72,5.01h-25.75c-2.95,0-4.56-1.72-4.56-5.01v-25.01c0-3.34,1.61-5.01,4.56-5.01h25.75c3.11,0,4.72,1.67,4.72,5.01v25.01Z"/>
        <polygon class="cls-1" points="314.09 200.94 306.38 200.94 306.38 193.24 299.84 193.24 299.84 200.94 292.13 200.94 292.13 207.49 299.84 207.49 299.84 215.19 306.38 215.19 306.38 207.49 314.09 207.49 314.09 200.94"/>
      </g>
    </g>
  </g>
</svg>